<?xml version="1.0" encoding="UTF-8"?>
<!-- Carte de decision de gardien (parcours v0.2.4) - genere par convertir-carte-mermaid v0.3.0 -->
<svg xmlns="http://www.w3.org/2000/svg" width="1082" height="1660" viewBox="0 0 1082 1660" font-family="Arial, Helvetica, sans-serif">
  <defs>
    <marker id="fleche" viewBox="0 0 10 10" refX="9" refY="5" markerWidth="7" markerHeight="7" orient="auto-start-reverse">
      <path d="M 0 0 L 10 5 L 0 10 z" fill="#64748b"/>
    </marker>
  </defs>
  <rect width="1082" height="1660" fill="#ffffff"/>
    <path d="M 541.0 76.0 L 541.0 166.0" fill="none" stroke="#64748b" stroke-width="1.2" marker-end="url(#fleche)"/>
    <path d="M 541.0 202.0 L 541.0 292.0" fill="none" stroke="#64748b" stroke-width="1.2" marker-end="url(#fleche)"/>
    <path d="M 541.0 354.0 L 541.0 444.0" fill="none" stroke="#64748b" stroke-width="1.2" marker-end="url(#fleche)"/>
    <rect x="526.6" y="389.0" width="28.8" height="15" rx="3" fill="#ffffff" stroke="none"/>
    <text x="541.0" y="401.0" text-anchor="middle" font-size="10.5" fill="#1e293b">OUI</text>
    <path d="M 541.0 354.0 C 631.0 260.0, 631.0 260.0, 541.0 166.0" fill="none" stroke="#64748b" stroke-width="1.2" marker-end="url(#fleche)"/>
    <rect x="616.6" y="250.0" width="28.8" height="15" rx="3" fill="#ffffff" stroke="none"/>
    <text x="631.0" y="262.0" text-anchor="middle" font-size="10.5" fill="#1e293b">NON</text>
    <path d="M 541.0 506.0 L 541.0 596.0" fill="none" stroke="#64748b" stroke-width="1.2" marker-end="url(#fleche)"/>
    <path d="M 422.8 770.0 V 835.0 H 224.8 V 900.0" fill="none" stroke="#64748b" stroke-width="1.2" marker-end="url(#fleche)"/>
    <rect x="295.4" y="825.0" width="56.8" height="15" rx="3" fill="#ffffff" stroke="none"/>
    <text x="323.8" y="837.0" text-anchor="middle" font-size="10.5" fill="#1e293b">verifier</text>
    <path d="M 422.8 770.0 V 835.0 H 668.8 V 900.0" fill="none" stroke="#64748b" stroke-width="1.2" marker-end="url(#fleche)"/>
    <rect x="517.4" y="825.0" width="56.8" height="15" rx="3" fill="#ffffff" stroke="none"/>
    <text x="545.8" y="837.0" text-anchor="middle" font-size="10.5" fill="#1e293b">proposer</text>
    <path d="M 422.8 770.0 V 835.0 H 445.2 V 900.0" fill="none" stroke="#64748b" stroke-width="1.2" marker-end="url(#fleche)"/>
    <rect x="414.0" y="825.0" width="40.0" height="15" rx="3" fill="#ffffff" stroke="none"/>
    <text x="434.0" y="837.0" text-anchor="middle" font-size="10.5" fill="#1e293b">autre</text>
    <path d="M 224.8 976.0 L 732.6 1066.0" fill="none" stroke="#64748b" stroke-width="1.2" marker-end="url(#fleche)"/>
    <path d="M 445.2 936.0 V 1001.0 H 119.4 V 1066.0" fill="none" stroke="#64748b" stroke-width="1.2" marker-end="url(#fleche)"/>
    <rect x="253.9" y="991.0" width="56.8" height="15" rx="3" fill="#ffffff" stroke="none"/>
    <text x="282.3" y="1003.0" text-anchor="middle" font-size="10.5" fill="#1e293b">deleguer</text>
    <path d="M 445.2 936.0 V 1001.0 H 311.0 V 1066.0" fill="none" stroke="#64748b" stroke-width="1.2" marker-end="url(#fleche)"/>
    <rect x="358.1" y="991.0" width="40.0" height="15" rx="3" fill="#ffffff" stroke="none"/>
    <text x="378.1" y="1003.0" text-anchor="middle" font-size="10.5" fill="#1e293b">outil</text>
    <path d="M 445.2 936.0 V 1001.0 H 528.2 V 1066.0" fill="none" stroke="#64748b" stroke-width="1.2" marker-end="url(#fleche)"/>
    <rect x="458.3" y="991.0" width="56.8" height="15" rx="3" fill="#ffffff" stroke="none"/>
    <text x="486.7" y="1003.0" text-anchor="middle" font-size="10.5" fill="#1e293b">signaler</text>
    <path d="M 311.0 1102.0 V 1153.0 H 208.8 V 1204.0" fill="none" stroke="#64748b" stroke-width="1.2" marker-end="url(#fleche)"/>
    <rect x="245.5" y="1143.0" width="28.8" height="15" rx="3" fill="#ffffff" stroke="none"/>
    <text x="259.9" y="1155.0" text-anchor="middle" font-size="10.5" fill="#1e293b">OUI</text>
    <path d="M 311.0 1102.0 C 401.0 1084.0, 618.2 1084.0, 528.2 1066.0" fill="none" stroke="#64748b" stroke-width="1.2" marker-end="url(#fleche)"/>
    <rect x="495.2" y="1074.0" width="28.8" height="15" rx="3" fill="#ffffff" stroke="none"/>
    <text x="509.6" y="1086.0" text-anchor="middle" font-size="10.5" fill="#1e293b">NON</text>
    <path d="M 208.8 1252.0 V 1304.0 H 317.4 V 1356.0" fill="none" stroke="#64748b" stroke-width="1.2" marker-end="url(#fleche)"/>
    <path d="M 732.6 1102.0 V 1153.0 H 911.6 V 1204.0" fill="none" stroke="#64748b" stroke-width="1.2" marker-end="url(#fleche)"/>
    <rect x="807.7" y="1143.0" width="28.8" height="15" rx="3" fill="#ffffff" stroke="none"/>
    <text x="822.1" y="1155.0" text-anchor="middle" font-size="10.5" fill="#1e293b">OUI</text>
    <path d="M 732.6 1102.0 V 1153.0 H 461.2 V 1204.0" fill="none" stroke="#64748b" stroke-width="1.2" marker-end="url(#fleche)"/>
    <rect x="582.5" y="1143.0" width="28.8" height="15" rx="3" fill="#ffffff" stroke="none"/>
    <text x="596.9" y="1155.0" text-anchor="middle" font-size="10.5" fill="#1e293b">NON</text>
    <path d="M 461.2 1266.0 L 761.4 1356.0" fill="none" stroke="#64748b" stroke-width="1.2" marker-end="url(#fleche)"/>
    <path d="M 668.8 948.0 V 1007.0 H 937.0 V 1066.0" fill="none" stroke="#64748b" stroke-width="1.2" marker-end="url(#fleche)"/>
    <path d="M 937.0 1114.0 L 697.6 1204.0" fill="none" stroke="#64748b" stroke-width="1.2" marker-end="url(#fleche)"/>
    <path d="M 697.6 1240.0 V 1298.0 H 537.8 V 1356.0" fill="none" stroke="#64748b" stroke-width="1.2" marker-end="url(#fleche)"/>
    <rect x="603.3" y="1288.0" width="28.8" height="15" rx="3" fill="#ffffff" stroke="none"/>
    <text x="617.7" y="1300.0" text-anchor="middle" font-size="10.5" fill="#1e293b">OUI</text>
    <path d="M 697.6 1240.0 V 1298.0 H 761.4 V 1356.0" fill="none" stroke="#64748b" stroke-width="1.2" marker-end="url(#fleche)"/>
    <rect x="715.1" y="1288.0" width="28.8" height="15" rx="3" fill="#ffffff" stroke="none"/>
    <text x="729.5" y="1300.0" text-anchor="middle" font-size="10.5" fill="#1e293b">NON</text>
    <path d="M 537.8 1432.0 C 627.8 1394.0, 851.4 1394.0, 761.4 1356.0" fill="none" stroke="#64748b" stroke-width="1.2" marker-end="url(#fleche)"/>
    <path d="M 761.4 1404.0 V 1463.0 H 541.0 V 1522.0" fill="none" stroke="#64748b" stroke-width="1.2" marker-end="url(#fleche)"/>
    <path d="M 541.0 1570.0 C 631.0 1387.0, 1001.6 1387.0, 911.6 1204.0" fill="none" stroke="#64748b" stroke-width="1.2" marker-end="url(#fleche)"/>
    <path d="M 541.0 644.0 L 604.8 734.0" fill="none" stroke="#64748b" stroke-width="1.2" marker-end="url(#fleche)"/>
    <rect x="558.5" y="679.0" width="28.8" height="15" rx="3" fill="#ffffff" stroke="none"/>
    <text x="572.9" y="691.0" text-anchor="middle" font-size="10.5" fill="#1e293b">OUI</text>
    <path d="M 541.0 644.0 L 422.8 734.0" fill="none" stroke="#64748b" stroke-width="1.2" marker-end="url(#fleche)"/>
    <rect x="467.5" y="679.0" width="28.8" height="15" rx="3" fill="#ffffff" stroke="none"/>
    <text x="481.9" y="691.0" text-anchor="middle" font-size="10.5" fill="#1e293b">NON</text>
    <path d="M 604.8 810.0 L 876.4 900.0" fill="none" stroke="#64748b" stroke-width="1.2" marker-end="url(#fleche)"/>
    <rect x="506.8" y="40.0" width="68.4" height="36.0" rx="18.0" fill="#e0f2fe" stroke="#1d4ed8" stroke-width="1.3"/>
    <text x="541.0" y="62.0" text-anchor="middle" font-size="11.5" fill="#0f172a">
      <tspan x="541.0" dy="0">Debut&quot;</tspan>
    </text>
    <rect x="509.0" y="166.0" width="64.0" height="36.0" rx="6.0" fill="#f8fafc" stroke="#334155" stroke-width="1.3"/>
    <text x="541.0" y="188.0" text-anchor="middle" font-size="11.5" fill="#0f172a">
      <tspan x="541.0" dy="0">c0</tspan>
    </text>
    <path d="M 541.0 292.0 L 632.8 323.0 L 541.0 354.0 L 449.2 323.0 Z" fill="#fef3c7" stroke="#b45309" stroke-width="1.3"/>
    <text x="541.0" y="313.0" text-anchor="middle" font-size="11.5" fill="#0f172a">
      <tspan x="541.0" dy="0">&quot;Confirmation : as-tu lu</tspan>
      <tspan x="541.0" dy="14">ta fiche et tes</tspan>
      <tspan x="541.0" dy="14">corrections ?&quot;</tspan>
    </text>
    <rect x="452.4" y="444.0" width="177.2" height="62.0" rx="6.0" fill="#f8fafc" stroke="#334155" stroke-width="1.3"/>
    <text x="541.0" y="465.0" text-anchor="middle" font-size="11.5" fill="#0f172a">
      <tspan x="541.0" dy="0">&quot;CONTEXTE OBLIGATOIRE :</tspan>
      <tspan x="541.0" dy="14">activite recente des</tspan>
      <tspan x="541.0" dy="14">agents&quot;</tspan>
    </text>
    <path d="M 422.8 734.0 L 466.6 752.0 L 422.8 770.0 L 379.0 752.0 Z" fill="#fef3c7" stroke="#b45309" stroke-width="1.3"/>
    <text x="422.8" y="756.0" text-anchor="middle" font-size="11.5" fill="#0f172a">
      <tspan x="422.8" dy="0">&quot;Mission&quot;</tspan>
    </text>
    <rect x="133.0" y="900.0" width="183.6" height="76.0" rx="6.0" fill="#f8fafc" stroke="#334155" stroke-width="1.3"/>
    <text x="224.8" y="921.0" text-anchor="middle" font-size="11.5" fill="#0f172a">
      <tspan x="224.8" dy="0">&quot;Verifier l integrite du</tspan>
      <tspan x="224.8" dy="14">marbre</tspan>
      <tspan x="224.8" dy="14">(proteger-verrou-marbre</tspan>
      <tspan x="224.8" dy="14">--tous)&quot;</tspan>
    </text>
    <path d="M 445.2 900.0 L 533.8 918.0 L 445.2 936.0 L 356.6 918.0 Z" fill="#fef3c7" stroke="#b45309" stroke-width="1.3"/>
    <text x="445.2" y="922.0" text-anchor="middle" font-size="11.5" fill="#0f172a">
      <tspan x="445.2" dy="0">&quot;Mission hors parcours&quot;</tspan>
    </text>
    <rect x="50.0" y="1066.0" width="138.8" height="36.0" rx="18.0" fill="#e0f2fe" stroke="#1d4ed8" stroke-width="1.3"/>
    <text x="119.4" y="1088.0" text-anchor="middle" font-size="11.5" fill="#0f172a">
      <tspan x="119.4" dy="0">FIN - Delegation&quot;</tspan>
    </text>
    <path d="M 311.0 1066.0 L 393.2 1084.0 L 311.0 1102.0 L 228.8 1084.0 Z" fill="#fef3c7" stroke="#b45309" stroke-width="1.3"/>
    <text x="311.0" y="1088.0" text-anchor="middle" font-size="11.5" fill="#0f172a">
      <tspan x="311.0" dy="0">&quot;Besoin d un outil ?&quot;</tspan>
    </text>
    <rect x="94.6" y="1204.0" width="228.4" height="48.0" rx="6.0" fill="#f8fafc" stroke="#334155" stroke-width="1.3"/>
    <text x="208.8" y="1225.0" text-anchor="middle" font-size="11.5" fill="#0f172a">
      <tspan x="208.8" dy="0">&quot;Creer l outil temporaire</tspan>
      <tspan x="208.8" dy="14">(generateurs-outil-temporaire)&quot;</tspan>
    </text>
    <rect x="228.8" y="1356.0" width="177.2" height="36.0" rx="18.0" fill="#e0f2fe" stroke="#1d4ed8" stroke-width="1.3"/>
    <text x="317.4" y="1378.0" text-anchor="middle" font-size="11.5" fill="#0f172a">
      <tspan x="317.4" dy="0">FIN - Outil temporaire&quot;</tspan>
    </text>
    <rect x="433.2" y="1066.0" width="190.0" height="36.0" rx="18.0" fill="#e0f2fe" stroke="#1d4ed8" stroke-width="1.3"/>
    <text x="528.2" y="1088.0" text-anchor="middle" font-size="11.5" fill="#0f172a">
      <tspan x="528.2" dy="0">FIN - Signaler le besoin&quot;</tspan>
    </text>
    <path d="M 732.6 1066.0 L 802.0 1084.0 L 732.6 1102.0 L 663.2 1084.0 Z" fill="#fef3c7" stroke="#b45309" stroke-width="1.3"/>
    <text x="732.6" y="1088.0" text-anchor="middle" font-size="11.5" fill="#0f172a">
      <tspan x="732.6" dy="0">&quot;Marbre intact ?&quot;</tspan>
    </text>
    <rect x="363.0" y="1204.0" width="196.4" height="62.0" rx="6.0" fill="#f8fafc" stroke="#334155" stroke-width="1.3"/>
    <text x="461.2" y="1225.0" text-anchor="middle" font-size="11.5" fill="#0f172a">
      <tspan x="461.2" dy="0">&quot;Signaler la violation</tspan>
      <tspan x="461.2" dy="14">(rapport + activer l agent</tspan>
      <tspan x="461.2" dy="14">responsable)&quot;</tspan>
    </text>
    <rect x="573.8" y="900.0" width="190.0" height="48.0" rx="6.0" fill="#f8fafc" stroke="#334155" stroke-width="1.3"/>
    <text x="668.8" y="921.0" text-anchor="middle" font-size="11.5" fill="#0f172a">
      <tspan x="668.8" dy="0">&quot;LIRE la raison de la</tspan>
      <tspan x="668.8" dy="14">mission (zone concernee)&quot;</tspan>
    </text>
    <rect x="842.0" y="1066.0" width="190.0" height="48.0" rx="6.0" fill="#f8fafc" stroke="#334155" stroke-width="1.3"/>
    <text x="937.0" y="1087.0" text-anchor="middle" font-size="11.5" fill="#0f172a">
      <tspan x="937.0" dy="0">&quot;PROPOSER la modification</tspan>
      <tspan x="937.0" dy="14">(zone + raison + impact)&quot;</tspan>
    </text>
    <path d="M 697.6 1204.0 L 795.8 1222.0 L 697.6 1240.0 L 599.4 1222.0 Z" fill="#fef3c7" stroke="#b45309" stroke-width="1.3"/>
    <text x="697.6" y="1226.0" text-anchor="middle" font-size="11.5" fill="#0f172a">
      <tspan x="697.6" dy="0">&quot;Validation utilisateur ?&quot;</tspan>
    </text>
    <rect x="446.0" y="1356.0" width="183.6" height="76.0" rx="6.0" fill="#f8fafc" stroke="#334155" stroke-width="1.3"/>
    <text x="537.8" y="1377.0" text-anchor="middle" font-size="11.5" fill="#0f172a">
      <tspan x="537.8" dy="0">&quot;EXECUTER</tspan>
      <tspan x="537.8" dy="14">proteger-modifier-marbre</tspan>
      <tspan x="537.8" dy="14">(autorisation</tspan>
      <tspan x="537.8" dy="14">utilisateur)&quot;</tspan>
    </text>
    <rect x="669.6" y="1356.0" width="183.6" height="48.0" rx="6.0" fill="#f8fafc" stroke="#334155" stroke-width="1.3"/>
    <text x="761.4" y="1377.0" text-anchor="middle" font-size="11.5" fill="#0f172a">
      <tspan x="761.4" dy="0">&quot;Lecon + enregistrer mes</tspan>
      <tspan x="761.4" dy="14">usages&quot;</tspan>
    </text>
    <rect x="446.0" y="1522.0" width="190.0" height="48.0" rx="6.0" fill="#f8fafc" stroke="#334155" stroke-width="1.3"/>
    <text x="541.0" y="1543.0" text-anchor="middle" font-size="11.5" fill="#0f172a">
      <tspan x="541.0" dy="0">&quot;Enregistrer mes usages d</tspan>
      <tspan x="541.0" dy="14">outils&quot;</tspan>
    </text>
    <rect x="835.8" y="1204.0" width="151.6" height="48.0" rx="24.0" fill="#e0f2fe" stroke="#1d4ed8" stroke-width="1.3"/>
    <text x="911.6" y="1225.0" text-anchor="middle" font-size="11.5" fill="#0f172a">
      <tspan x="911.6" dy="0">FIN - Activer Janus</tspan>
      <tspan x="911.6" dy="14">(second controle)&quot;</tspan>
    </text>
    <path d="M 541.0 596.0 L 639.2 620.0 L 541.0 644.0 L 442.8 620.0 Z" fill="#fef3c7" stroke="#b45309" stroke-width="1.3"/>
    <text x="541.0" y="617.0" text-anchor="middle" font-size="11.5" fill="#0f172a">
      <tspan x="541.0" dy="0">&quot;Probleme avec un outil en</tspan>
      <tspan x="541.0" dy="14">cours de mission ?&quot;</tspan>
    </text>
    <rect x="506.6" y="734.0" width="196.4" height="76.0" rx="6.0" fill="#f8fafc" stroke="#334155" stroke-width="1.3"/>
    <text x="604.8" y="755.0" text-anchor="middle" font-size="11.5" fill="#0f172a">
      <tspan x="604.8" dy="0">&quot;COMPRENDRE L OUTIL : lire</tspan>
      <tspan x="604.8" dy="14">le .md puis</tspan>
      <tspan x="604.8" dy="14">generateurs-commande ou</tspan>
      <tspan x="604.8" dy="14">combo&quot;</tspan>
    </text>
    <rect x="803.8" y="900.0" width="145.2" height="48.0" rx="24.0" fill="#e0f2fe" stroke="#1d4ed8" stroke-width="1.3"/>
    <text x="876.4" y="921.0" text-anchor="middle" font-size="11.5" fill="#0f172a">
      <tspan x="876.4" dy="0">FIN - Reprendre ma</tspan>
      <tspan x="876.4" dy="14">mission&quot;</tspan>
    </text>
</svg>
