<?xml version="1.0" encoding="UTF-8"?>
<!-- Carte de decision de hades (parcours v0.1.1) - genere par convertir-carte-mermaid v0.3.0 -->
<svg xmlns="http://www.w3.org/2000/svg" width="705" height="1110" viewBox="0 0 705 1110" font-family="Arial, Helvetica, sans-serif">
  <defs>
    <marker id="fleche" viewBox="0 0 10 10" refX="9" refY="5" markerWidth="7" markerHeight="7" orient="auto-start-reverse">
      <path d="M 0 0 L 10 5 L 0 10 z" fill="#64748b"/>
    </marker>
  </defs>
  <rect width="705" height="1110" fill="#ffffff"/>
    <path d="M 352.6 76.0 L 352.6 166.0" fill="none" stroke="#64748b" stroke-width="1.2" marker-end="url(#fleche)"/>
    <path d="M 352.6 202.0 L 352.6 292.0" fill="none" stroke="#64748b" stroke-width="1.2" marker-end="url(#fleche)"/>
    <path d="M 352.6 328.0 L 352.6 418.0" fill="none" stroke="#64748b" stroke-width="1.2" marker-end="url(#fleche)"/>
    <rect x="338.2" y="363.0" width="28.8" height="15" rx="3" fill="#ffffff" stroke="none"/>
    <text x="352.6" y="375.0" text-anchor="middle" font-size="10.5" fill="#1e293b">OUI</text>
    <path d="M 352.6 328.0 C 442.6 247.0, 442.6 247.0, 352.6 166.0" fill="none" stroke="#64748b" stroke-width="1.2" marker-end="url(#fleche)"/>
    <rect x="411.4" y="237.0" width="62.4" height="15" rx="3" fill="#ffffff" stroke="none"/>
    <text x="442.6" y="249.0" text-anchor="middle" font-size="10.5" fill="#1e293b">INCERTAIN</text>
    <path d="M 352.6 328.0 C 442.6 247.0, 442.6 247.0, 352.6 166.0" fill="none" stroke="#64748b" stroke-width="1.2" marker-end="url(#fleche)"/>
    <rect x="428.2" y="237.0" width="28.8" height="15" rx="3" fill="#ffffff" stroke="none"/>
    <text x="442.6" y="249.0" text-anchor="middle" font-size="10.5" fill="#1e293b">NON</text>
    <path d="M 352.6 604.0 L 352.6 694.0" fill="none" stroke="#64748b" stroke-width="1.2" marker-end="url(#fleche)"/>
    <path d="M 352.6 466.0 L 352.6 556.0" fill="none" stroke="#64748b" stroke-width="1.2" marker-end="url(#fleche)"/>
    <path d="M 352.6 730.0 L 237.6 820.0" fill="none" stroke="#64748b" stroke-width="1.2" marker-end="url(#fleche)"/>
    <rect x="258.3" y="765.0" width="73.6" height="15" rx="3" fill="#ffffff" stroke="none"/>
    <text x="295.1" y="777.0" text-anchor="middle" font-size="10.5" fill="#1e293b">sauvegarder</text>
    <path d="M 352.6 730.0 L 237.6 820.0" fill="none" stroke="#64748b" stroke-width="1.2" marker-end="url(#fleche)"/>
    <rect x="263.9" y="765.0" width="62.4" height="15" rx="3" fill="#ffffff" stroke="none"/>
    <text x="295.1" y="777.0" text-anchor="middle" font-size="10.5" fill="#1e293b">consulter</text>
    <path d="M 352.6 730.0 L 467.6 820.0" fill="none" stroke="#64748b" stroke-width="1.2" marker-end="url(#fleche)"/>
    <rect x="378.9" y="765.0" width="62.4" height="15" rx="3" fill="#ffffff" stroke="none"/>
    <text x="410.1" y="777.0" text-anchor="middle" font-size="10.5" fill="#1e293b">restaurer</text>
    <path d="M 237.6 868.0 L 557.0 958.0" fill="none" stroke="#64748b" stroke-width="1.2" marker-end="url(#fleche)"/>
    <path d="M 467.6 868.0 L 138.6 958.0" fill="none" stroke="#64748b" stroke-width="1.2" marker-end="url(#fleche)"/>
    <rect x="288.7" y="903.0" width="28.8" height="15" rx="3" fill="#ffffff" stroke="none"/>
    <text x="303.1" y="915.0" text-anchor="middle" font-size="10.5" fill="#1e293b">OUI</text>
    <path d="M 467.6 868.0 L 343.0 958.0" fill="none" stroke="#64748b" stroke-width="1.2" marker-end="url(#fleche)"/>
    <rect x="390.9" y="903.0" width="28.8" height="15" rx="3" fill="#ffffff" stroke="none"/>
    <text x="405.3" y="915.0" text-anchor="middle" font-size="10.5" fill="#1e293b">NON</text>
    <path d="M 138.6 1006.0 C 228.6 982.0, 647.0 982.0, 557.0 958.0" fill="none" stroke="#64748b" stroke-width="1.2" marker-end="url(#fleche)"/>
    <rect x="318.4" y="40.0" width="68.4" height="36.0" rx="18.0" fill="#e0f2fe" stroke="#1d4ed8" stroke-width="1.3"/>
    <text x="352.6" y="62.0" text-anchor="middle" font-size="11.5" fill="#0f172a">
      <tspan x="352.6" dy="0">Debut&quot;</tspan>
    </text>
    <rect x="320.6" y="166.0" width="64.0" height="36.0" rx="6.0" fill="#f8fafc" stroke="#334155" stroke-width="1.3"/>
    <text x="352.6" y="188.0" text-anchor="middle" font-size="11.5" fill="#0f172a">
      <tspan x="352.6" dy="0">c0</tspan>
    </text>
    <path d="M 352.6 292.0 L 447.6 310.0 L 352.6 328.0 L 257.6 310.0 Z" fill="#fef3c7" stroke="#b45309" stroke-width="1.3"/>
    <text x="352.6" y="314.0" text-anchor="middle" font-size="11.5" fill="#0f172a">
      <tspan x="352.6" dy="0">&quot;Confirmation de lecture&quot;</tspan>
    </text>
    <rect x="264.0" y="556.0" width="177.2" height="48.0" rx="6.0" fill="#f8fafc" stroke="#334155" stroke-width="1.3"/>
    <text x="352.6" y="577.0" text-anchor="middle" font-size="11.5" fill="#0f172a">
      <tspan x="352.6" dy="0">&quot;CONTEXTE OBLIGATOIRE :</tspan>
      <tspan x="352.6" dy="14">activite recente&quot;</tspan>
    </text>
    <rect x="257.6" y="418.0" width="190.0" height="48.0" rx="6.0" fill="#f8fafc" stroke="#334155" stroke-width="1.3"/>
    <text x="352.6" y="439.0" text-anchor="middle" font-size="11.5" fill="#0f172a">
      <tspan x="352.6" dy="0">&quot;Consulter les lecons des</tspan>
      <tspan x="352.6" dy="14">autres agents&quot;</tspan>
    </text>
    <path d="M 352.6 694.0 L 438.0 712.0 L 352.6 730.0 L 267.2 712.0 Z" fill="#fef3c7" stroke="#b45309" stroke-width="1.3"/>
    <text x="352.6" y="716.0" text-anchor="middle" font-size="11.5" fill="#0f172a">
      <tspan x="352.6" dy="0">&quot;Mission git demandee&quot;</tspan>
    </text>
    <rect x="142.6" y="820.0" width="190.0" height="48.0" rx="6.0" fill="#f8fafc" stroke="#334155" stroke-width="1.3"/>
    <text x="237.6" y="841.0" text-anchor="middle" font-size="11.5" fill="#0f172a">
      <tspan x="237.6" dy="0">&quot;Operation sans risque</tspan>
      <tspan x="237.6" dy="14">(status/log/diff/commit)&quot;</tspan>
    </text>
    <path d="M 467.6 820.0 L 562.6 844.0 L 467.6 868.0 L 372.6 844.0 Z" fill="#fef3c7" stroke="#b45309" stroke-width="1.3"/>
    <text x="467.6" y="841.0" text-anchor="middle" font-size="11.5" fill="#0f172a">
      <tspan x="467.6" dy="0">&quot;REGLE D ANCIENNETE : age</tspan>
      <tspan x="467.6" dy="14">des fichiers ?&quot;</tspan>
    </text>
    <rect x="50.0" y="958.0" width="177.2" height="48.0" rx="6.0" fill="#f8fafc" stroke="#334155" stroke-width="1.3"/>
    <text x="138.6" y="979.0" text-anchor="middle" font-size="11.5" fill="#0f172a">
      <tspan x="138.6" dy="0">&quot;Checkout autorise sous</tspan>
      <tspan x="138.6" dy="14">regle d anciennete&quot;</tspan>
    </text>
    <rect x="267.2" y="958.0" width="151.6" height="62.0" rx="31.0" fill="#e0f2fe" stroke="#1d4ed8" stroke-width="1.3"/>
    <text x="343.0" y="979.0" text-anchor="middle" font-size="11.5" fill="#0f172a">
      <tspan x="343.0" dy="0">Checkout INTERDIT -</tspan>
      <tspan x="343.0" dy="14">reparation dans le</tspan>
      <tspan x="343.0" dy="14">present&quot;</tspan>
    </text>
    <rect x="458.8" y="958.0" width="196.4" height="48.0" rx="24.0" fill="#e0f2fe" stroke="#1d4ed8" stroke-width="1.3"/>
    <text x="557.0" y="979.0" text-anchor="middle" font-size="11.5" fill="#0f172a">
      <tspan x="557.0" dy="0">FIN DE MISSION - reactiver</tspan>
      <tspan x="557.0" dy="14">Cerberus&quot;</tspan>
    </text>
</svg>
