<?xml version="1.0" encoding="UTF-8"?>
<!-- Carte de decision de hygie (parcours v0.2.1) - genere par convertir-carte-mermaid v0.2.0 -->
<svg xmlns="http://www.w3.org/2000/svg" width="1318" height="1730" viewBox="0 0 1318 1730" font-family="Arial, Helvetica, sans-serif">
  <defs>
    <marker id="fleche" viewBox="0 0 10 10" refX="9" refY="5" markerWidth="7" markerHeight="7" orient="auto-start-reverse">
      <path d="M 0 0 L 10 5 L 0 10 z" fill="#64748b"/>
    </marker>
  </defs>
  <rect width="1318" height="1730" fill="#ffffff"/>
    <path d="M 659.2 76.0 L 659.2 166.0" fill="none" stroke="#64748b" stroke-width="1.2" marker-end="url(#fleche)"/>
    <path d="M 659.2 202.0 L 659.2 292.0" fill="none" stroke="#64748b" stroke-width="1.2" marker-end="url(#fleche)"/>
    <path d="M 659.2 354.0 L 659.2 444.0" fill="none" stroke="#64748b" stroke-width="1.2" marker-end="url(#fleche)"/>
    <rect x="644.8" y="389.0" width="28.8" height="15" rx="3" fill="#ffffff" stroke="none"/>
    <text x="659.2" y="401.0" text-anchor="middle" font-size="10.5" fill="#1e293b">OUI</text>
    <path d="M 659.2 354.0 C 749.2 260.0, 749.2 260.0, 659.2 166.0" fill="none" stroke="#64748b" stroke-width="1.2" marker-end="url(#fleche)"/>
    <rect x="734.8" y="250.0" width="28.8" height="15" rx="3" fill="#ffffff" stroke="none"/>
    <text x="749.2" y="262.0" text-anchor="middle" font-size="10.5" fill="#1e293b">NON</text>
    <path d="M 659.2 658.0 L 659.2 748.0" fill="none" stroke="#64748b" stroke-width="1.2" marker-end="url(#fleche)"/>
    <path d="M 659.2 506.0 L 659.2 596.0" fill="none" stroke="#64748b" stroke-width="1.2" marker-end="url(#fleche)"/>
    <path d="M 659.2 784.0 L 327.0 874.0" fill="none" stroke="#64748b" stroke-width="1.2" marker-end="url(#fleche)"/>
    <rect x="464.7" y="819.0" width="56.8" height="15" rx="3" fill="#ffffff" stroke="none"/>
    <text x="493.1" y="831.0" text-anchor="middle" font-size="10.5" fill="#1e293b">nettoyer</text>
    <path d="M 659.2 784.0 L 985.0 874.0" fill="none" stroke="#64748b" stroke-width="1.2" marker-end="url(#fleche)"/>
    <rect x="793.7" y="819.0" width="56.8" height="15" rx="3" fill="#ffffff" stroke="none"/>
    <text x="822.1" y="831.0" text-anchor="middle" font-size="10.5" fill="#1e293b">snapshot</text>
    <path d="M 659.2 784.0 L 761.4 874.0" fill="none" stroke="#64748b" stroke-width="1.2" marker-end="url(#fleche)"/>
    <rect x="679.1" y="819.0" width="62.4" height="15" rx="3" fill="#ffffff" stroke="none"/>
    <text x="710.3" y="831.0" text-anchor="middle" font-size="10.5" fill="#1e293b">honnetete</text>
    <path d="M 659.2 784.0 L 537.8 874.0" fill="none" stroke="#64748b" stroke-width="1.2" marker-end="url(#fleche)"/>
    <rect x="578.5" y="819.0" width="40.0" height="15" rx="3" fill="#ffffff" stroke="none"/>
    <text x="598.5" y="831.0" text-anchor="middle" font-size="10.5" fill="#1e293b">autre</text>
    <path d="M 346.2 1502.0 L 541.0 1592.0" fill="none" stroke="#64748b" stroke-width="1.2" marker-end="url(#fleche)"/>
    <rect x="429.2" y="1537.0" width="28.8" height="15" rx="3" fill="#ffffff" stroke="none"/>
    <text x="443.6" y="1549.0" text-anchor="middle" font-size="10.5" fill="#1e293b">OUI</text>
    <path d="M 346.2 1502.0 C 436.2 1333.0, 1052.6 1333.0, 962.6 1164.0" fill="none" stroke="#64748b" stroke-width="1.2" marker-end="url(#fleche)"/>
    <rect x="730.0" y="1323.0" width="28.8" height="15" rx="3" fill="#ffffff" stroke="none"/>
    <text x="744.4" y="1335.0" text-anchor="middle" font-size="10.5" fill="#1e293b">NON</text>
    <path d="M 541.0 1628.0 C 631.0 1396.0, 212.6 1396.0, 122.6 1164.0" fill="none" stroke="#64748b" stroke-width="1.2" marker-end="url(#fleche)"/>
    <path d="M 122.6 1200.0 V 1258.0 H 560.2 V 1316.0" fill="none" stroke="#64748b" stroke-width="1.2" marker-end="url(#fleche)"/>
    <path d="M 327.0 922.0 V 974.0 H 624.0 V 1026.0" fill="none" stroke="#64748b" stroke-width="1.2" marker-end="url(#fleche)"/>
    <path d="M 537.8 910.0 V 968.0 H 224.8 V 1026.0" fill="none" stroke="#64748b" stroke-width="1.2" marker-end="url(#fleche)"/>
    <rect x="366.9" y="958.0" width="28.8" height="15" rx="3" fill="#ffffff" stroke="none"/>
    <text x="381.3" y="970.0" text-anchor="middle" font-size="10.5" fill="#1e293b">OUI</text>
    <path d="M 537.8 910.0 V 968.0 H 416.4 V 1026.0" fill="none" stroke="#64748b" stroke-width="1.2" marker-end="url(#fleche)"/>
    <rect x="462.7" y="958.0" width="28.8" height="15" rx="3" fill="#ffffff" stroke="none"/>
    <text x="477.1" y="970.0" text-anchor="middle" font-size="10.5" fill="#1e293b">NON</text>
    <path d="M 416.4 1062.0 V 1113.0 H 333.4 V 1164.0" fill="none" stroke="#64748b" stroke-width="1.2" marker-end="url(#fleche)"/>
    <rect x="340.9" y="1103.0" width="68.0" height="15" rx="3" fill="#ffffff" stroke="none"/>
    <text x="374.9" y="1115.0" text-anchor="middle" font-size="10.5" fill="#1e293b">TEMPORAIRE</text>
    <path d="M 416.4 1062.0 V 1113.0 H 547.4 V 1164.0" fill="none" stroke="#64748b" stroke-width="1.2" marker-end="url(#fleche)"/>
    <rect x="456.3" y="1103.0" width="51.2" height="15" rx="3" fill="#ffffff" stroke="none"/>
    <text x="481.9" y="1115.0" text-anchor="middle" font-size="10.5" fill="#1e293b">DURABLE</text>
    <path d="M 333.4 1200.0 V 1258.0 H 336.6 V 1316.0" fill="none" stroke="#64748b" stroke-width="1.2" marker-end="url(#fleche)"/>
    <path d="M 624.0 1074.0 L 758.2 1164.0" fill="none" stroke="#64748b" stroke-width="1.2" marker-end="url(#fleche)"/>
    <path d="M 758.2 1502.0 C 848.2 1333.0, 212.6 1333.0, 122.6 1164.0" fill="none" stroke="#64748b" stroke-width="1.2" marker-end="url(#fleche)"/>
    <path d="M 560.2 1364.0 L 557.0 1454.0" fill="none" stroke="#64748b" stroke-width="1.2" marker-end="url(#fleche)"/>
    <path d="M 758.2 1212.0 V 1264.0 H 777.4 V 1316.0" fill="none" stroke="#64748b" stroke-width="1.2" marker-end="url(#fleche)"/>
    <path d="M 777.4 1364.0 L 975.4 1454.0" fill="none" stroke="#64748b" stroke-width="1.2" marker-end="url(#fleche)"/>
    <rect x="862.0" y="1399.0" width="28.8" height="15" rx="3" fill="#ffffff" stroke="none"/>
    <text x="876.4" y="1411.0" text-anchor="middle" font-size="10.5" fill="#1e293b">OUI</text>
    <path d="M 777.4 1364.0 L 758.2 1454.0" fill="none" stroke="#64748b" stroke-width="1.2" marker-end="url(#fleche)"/>
    <rect x="753.4" y="1399.0" width="28.8" height="15" rx="3" fill="#ffffff" stroke="none"/>
    <text x="767.8" y="1411.0" text-anchor="middle" font-size="10.5" fill="#1e293b">NON</text>
    <path d="M 975.4 1502.0 L 764.6 1592.0" fill="none" stroke="#64748b" stroke-width="1.2" marker-end="url(#fleche)"/>
    <path d="M 764.6 1640.0 C 854.6 1257.0, 851.4 1257.0, 761.4 874.0" fill="none" stroke="#64748b" stroke-width="1.2" marker-end="url(#fleche)"/>
    <rect x="838.6" y="1247.0" width="28.8" height="15" rx="3" fill="#ffffff" stroke="none"/>
    <text x="853.0" y="1259.0" text-anchor="middle" font-size="10.5" fill="#1e293b">OUI</text>
    <path d="M 764.6 1640.0 C 854.6 1402.0, 1052.6 1402.0, 962.6 1164.0" fill="none" stroke="#64748b" stroke-width="1.2" marker-end="url(#fleche)"/>
    <rect x="939.2" y="1392.0" width="28.8" height="15" rx="3" fill="#ffffff" stroke="none"/>
    <text x="953.6" y="1404.0" text-anchor="middle" font-size="10.5" fill="#1e293b">NON</text>
    <path d="M 962.6 1226.0 L 985.0 1316.0" fill="none" stroke="#64748b" stroke-width="1.2" marker-end="url(#fleche)"/>
    <path d="M 985.0 1364.0 L 346.2 1454.0" fill="none" stroke="#64748b" stroke-width="1.2" marker-end="url(#fleche)"/>
    <path d="M 761.4 936.0 L 847.6 1026.0" fill="none" stroke="#64748b" stroke-width="1.2" marker-end="url(#fleche)"/>
    <path d="M 847.6 1074.0 L 962.6 1164.0" fill="none" stroke="#64748b" stroke-width="1.2" marker-end="url(#fleche)"/>
    <rect x="890.7" y="1109.0" width="28.8" height="15" rx="3" fill="#ffffff" stroke="none"/>
    <text x="905.1" y="1121.0" text-anchor="middle" font-size="10.5" fill="#1e293b">OUI</text>
    <path d="M 847.6 1074.0 L 1170.2 1164.0" fill="none" stroke="#64748b" stroke-width="1.2" marker-end="url(#fleche)"/>
    <rect x="994.5" y="1109.0" width="28.8" height="15" rx="3" fill="#ffffff" stroke="none"/>
    <text x="1008.9" y="1121.0" text-anchor="middle" font-size="10.5" fill="#1e293b">NON</text>
    <path d="M 985.0 922.0 V 974.0 H 1074.4 V 1026.0" fill="none" stroke="#64748b" stroke-width="1.2" marker-end="url(#fleche)"/>
    <path d="M 1074.4 1074.0 L 122.6 1164.0" fill="none" stroke="#64748b" stroke-width="1.2" marker-end="url(#fleche)"/>
    <rect x="625.0" y="40.0" width="68.4" height="36.0" rx="18.0" fill="#e0f2fe" stroke="#1d4ed8" stroke-width="1.3"/>
    <text x="659.2" y="62.0" text-anchor="middle" font-size="11.5" fill="#0f172a">
      <tspan x="659.2" dy="0">Debut&quot;</tspan>
    </text>
    <rect x="627.2" y="166.0" width="64.0" height="36.0" rx="6.0" fill="#f8fafc" stroke="#334155" stroke-width="1.3"/>
    <text x="659.2" y="188.0" text-anchor="middle" font-size="11.5" fill="#0f172a">
      <tspan x="659.2" dy="0">c0</tspan>
    </text>
    <path d="M 659.2 292.0 L 751.0 323.0 L 659.2 354.0 L 567.4 323.0 Z" fill="#fef3c7" stroke="#b45309" stroke-width="1.3"/>
    <text x="659.2" y="313.0" text-anchor="middle" font-size="11.5" fill="#0f172a">
      <tspan x="659.2" dy="0">&quot;Confirmation : as-tu lu</tspan>
      <tspan x="659.2" dy="14">ta fiche et tes</tspan>
      <tspan x="659.2" dy="14">corrections ?&quot;</tspan>
    </text>
    <rect x="570.6" y="596.0" width="177.2" height="62.0" rx="6.0" fill="#f8fafc" stroke="#334155" stroke-width="1.3"/>
    <text x="659.2" y="617.0" text-anchor="middle" font-size="11.5" fill="#0f172a">
      <tspan x="659.2" dy="0">&quot;CONTEXTE OBLIGATOIRE :</tspan>
      <tspan x="659.2" dy="14">activite recente des</tspan>
      <tspan x="659.2" dy="14">agents&quot;</tspan>
    </text>
    <rect x="564.2" y="444.0" width="190.0" height="62.0" rx="6.0" fill="#f8fafc" stroke="#334155" stroke-width="1.3"/>
    <text x="659.2" y="465.0" text-anchor="middle" font-size="11.5" fill="#0f172a">
      <tspan x="659.2" dy="0">&quot;Consulter les lecons des</tspan>
      <tspan x="659.2" dy="14">autres agents (domaine de</tspan>
      <tspan x="659.2" dy="14">ma mission)&quot;</tspan>
    </text>
    <path d="M 659.2 748.0 L 703.0 766.0 L 659.2 784.0 L 615.4 766.0 Z" fill="#fef3c7" stroke="#b45309" stroke-width="1.3"/>
    <text x="659.2" y="770.0" text-anchor="middle" font-size="11.5" fill="#0f172a">
      <tspan x="659.2" dy="0">&quot;Mission&quot;</tspan>
    </text>
    <path d="M 346.2 1454.0 L 441.2 1478.0 L 346.2 1502.0 L 251.2 1478.0 Z" fill="#fef3c7" stroke="#b45309" stroke-width="1.3"/>
    <text x="346.2" y="1475.0" text-anchor="middle" font-size="11.5" fill="#0f172a">
      <tspan x="346.2" dy="0">&quot;Tous les residus ont-ils</tspan>
      <tspan x="346.2" dy="14">disparu ?&quot;</tspan>
    </text>
    <rect x="455.6" y="1592.0" width="170.8" height="36.0" rx="6.0" fill="#f8fafc" stroke="#334155" stroke-width="1.3"/>
    <text x="541.0" y="1614.0" text-anchor="middle" font-size="11.5" fill="#0f172a">
      <tspan x="541.0" dy="0">&quot;Rapport de nettoyage&quot;</tspan>
    </text>
    <rect x="50.0" y="1164.0" width="145.2" height="36.0" rx="6.0" fill="#f8fafc" stroke="#334155" stroke-width="1.3"/>
    <text x="122.6" y="1186.0" text-anchor="middle" font-size="11.5" fill="#0f172a">
      <tspan x="122.6" dy="0">&quot;Lecons et retour&quot;</tspan>
    </text>
    <rect x="481.2" y="1454.0" width="151.6" height="48.0" rx="24.0" fill="#e0f2fe" stroke="#1d4ed8" stroke-width="1.3"/>
    <text x="557.0" y="1475.0" text-anchor="middle" font-size="11.5" fill="#0f172a">
      <tspan x="557.0" dy="0">FIN - Activer Janus</tspan>
      <tspan x="557.0" dy="14">(second controle)&quot;</tspan>
    </text>
    <rect x="244.8" y="874.0" width="164.4" height="48.0" rx="6.0" fill="#f8fafc" stroke="#334155" stroke-width="1.3"/>
    <text x="327.0" y="895.0" text-anchor="middle" font-size="11.5" fill="#0f172a">
      <tspan x="327.0" dy="0">&quot;SNAPSHOT OBLIGATOIRE</tspan>
      <tspan x="327.0" dy="14">avant tout nettoyage&quot;</tspan>
    </text>
    <path d="M 537.8 874.0 L 626.4 892.0 L 537.8 910.0 L 449.2 892.0 Z" fill="#fef3c7" stroke="#b45309" stroke-width="1.3"/>
    <text x="537.8" y="896.0" text-anchor="middle" font-size="11.5" fill="#0f172a">
      <tspan x="537.8" dy="0">&quot;Mission hors parcours&quot;</tspan>
    </text>
    <rect x="155.4" y="1026.0" width="138.8" height="36.0" rx="18.0" fill="#e0f2fe" stroke="#1d4ed8" stroke-width="1.3"/>
    <text x="224.8" y="1048.0" text-anchor="middle" font-size="11.5" fill="#0f172a">
      <tspan x="224.8" dy="0">FIN - Delegation&quot;</tspan>
    </text>
    <path d="M 416.4 1026.0 L 498.6 1044.0 L 416.4 1062.0 L 334.2 1044.0 Z" fill="#fef3c7" stroke="#b45309" stroke-width="1.3"/>
    <text x="416.4" y="1048.0" text-anchor="middle" font-size="11.5" fill="#0f172a">
      <tspan x="416.4" dy="0">&quot;Besoin d un outil ?&quot;</tspan>
    </text>
    <rect x="235.2" y="1164.0" width="196.4" height="36.0" rx="6.0" fill="#f8fafc" stroke="#334155" stroke-width="1.3"/>
    <text x="333.4" y="1186.0" text-anchor="middle" font-size="11.5" fill="#0f172a">
      <tspan x="333.4" dy="0">&quot;Creer l outil temporaire&quot;</tspan>
    </text>
    <rect x="248.0" y="1316.0" width="177.2" height="36.0" rx="18.0" fill="#e0f2fe" stroke="#1d4ed8" stroke-width="1.3"/>
    <text x="336.6" y="1338.0" text-anchor="middle" font-size="11.5" fill="#0f172a">
      <tspan x="336.6" dy="0">FIN - Outil temporaire&quot;</tspan>
    </text>
    <rect x="471.6" y="1164.0" width="151.6" height="36.0" rx="18.0" fill="#e0f2fe" stroke="#1d4ed8" stroke-width="1.3"/>
    <text x="547.4" y="1186.0" text-anchor="middle" font-size="11.5" fill="#0f172a">
      <tspan x="547.4" dy="0">Signaler le besoin&quot;</tspan>
    </text>
    <rect x="538.6" y="1026.0" width="170.8" height="48.0" rx="6.0" fill="#f8fafc" stroke="#334155" stroke-width="1.3"/>
    <text x="624.0" y="1047.0" text-anchor="middle" font-size="11.5" fill="#0f172a">
      <tspan x="624.0" dy="0">&quot;Consulter le snapshot</tspan>
      <tspan x="624.0" dy="14">precedent&quot;</tspan>
    </text>
    <rect x="672.8" y="1454.0" width="170.8" height="48.0" rx="6.0" fill="#f8fafc" stroke="#334155" stroke-width="1.3"/>
    <text x="758.2" y="1475.0" text-anchor="middle" font-size="11.5" fill="#0f172a">
      <tspan x="758.2" dy="0">&quot;Aucun residu : rien a</tspan>
      <tspan x="758.2" dy="14">nettoyer&quot;</tspan>
    </text>
    <rect x="465.2" y="1316.0" width="190.0" height="48.0" rx="6.0" fill="#f8fafc" stroke="#334155" stroke-width="1.3"/>
    <text x="560.2" y="1337.0" text-anchor="middle" font-size="11.5" fill="#0f172a">
      <tspan x="560.2" dy="0">&quot;Enregistrer mes usages d</tspan>
      <tspan x="560.2" dy="14">outils&quot;</tspan>
    </text>
    <rect x="663.2" y="1164.0" width="190.0" height="48.0" rx="6.0" fill="#f8fafc" stroke="#334155" stroke-width="1.3"/>
    <text x="758.2" y="1185.0" text-anchor="middle" font-size="11.5" fill="#0f172a">
      <tspan x="758.2" dy="0">&quot;Detection compartimentee</tspan>
      <tspan x="758.2" dy="14">des residus&quot;</tspan>
    </text>
    <path d="M 777.4 1316.0 L 859.6 1340.0 L 777.4 1364.0 L 695.2 1340.0 Z" fill="#fef3c7" stroke="#b45309" stroke-width="1.3"/>
    <text x="777.4" y="1337.0" text-anchor="middle" font-size="11.5" fill="#0f172a">
      <tspan x="777.4" dy="0">&quot;Des residus sont-ils</tspan>
      <tspan x="777.4" dy="14">detectes ?&quot;</tspan>
    </text>
    <rect x="883.6" y="1454.0" width="183.6" height="48.0" rx="6.0" fill="#f8fafc" stroke="#334155" stroke-width="1.3"/>
    <text x="975.4" y="1475.0" text-anchor="middle" font-size="11.5" fill="#0f172a">
      <tspan x="975.4" dy="0">&quot;Classer les residus par</tspan>
      <tspan x="975.4" dy="14">zone&quot;</tspan>
    </text>
    <path d="M 764.6 1592.0 L 862.8 1616.0 L 764.6 1640.0 L 666.4 1616.0 Z" fill="#fef3c7" stroke="#b45309" stroke-width="1.3"/>
    <text x="764.6" y="1613.0" text-anchor="middle" font-size="11.5" fill="#0f172a">
      <tspan x="764.6" dy="0">&quot;Un residu est-il suspect</tspan>
      <tspan x="764.6" dy="14">(honnetete non prouvee) ?&quot;</tspan>
    </text>
    <rect x="893.2" y="1164.0" width="138.8" height="62.0" rx="6.0" fill="#f8fafc" stroke="#334155" stroke-width="1.3"/>
    <text x="962.6" y="1185.0" text-anchor="middle" font-size="11.5" fill="#0f172a">
      <tspan x="962.6" dy="0">&quot;Supprimer avec</tspan>
      <tspan x="962.6" dy="14">tracabilite (seul</tspan>
      <tspan x="962.6" dy="14">habilite)&quot;</tspan>
    </text>
    <rect x="899.6" y="1316.0" width="170.8" height="48.0" rx="6.0" fill="#f8fafc" stroke="#334155" stroke-width="1.3"/>
    <text x="985.0" y="1337.0" text-anchor="middle" font-size="11.5" fill="#0f172a">
      <tspan x="985.0" dy="0">&quot;Purifier les fichiers</tspan>
      <tspan x="985.0" dy="14">surcharges (RVAV)&quot;</tspan>
    </text>
    <rect x="666.4" y="874.0" width="190.0" height="62.0" rx="6.0" fill="#f8fafc" stroke="#334155" stroke-width="1.3"/>
    <text x="761.4" y="895.0" text-anchor="middle" font-size="11.5" fill="#0f172a">
      <tspan x="761.4" dy="0">&quot;RELAIS - Activer l agent</tspan>
      <tspan x="761.4" dy="14">habilite (preuve d</tspan>
      <tspan x="761.4" dy="14">honnetete)&quot;</tspan>
    </text>
    <path d="M 847.6 1026.0 L 945.8 1050.0 L 847.6 1074.0 L 749.4 1050.0 Z" fill="#fef3c7" stroke="#b45309" stroke-width="1.3"/>
    <text x="847.6" y="1047.0" text-anchor="middle" font-size="11.5" fill="#0f172a">
      <tspan x="847.6" dy="0">&quot;RETOUR - Verifier le</tspan>
      <tspan x="847.6" dy="14">rapport a la reactivation&quot;</tspan>
    </text>
    <rect x="1072.0" y="1164.0" width="196.4" height="48.0" rx="24.0" fill="#e0f2fe" stroke="#1d4ed8" stroke-width="1.3"/>
    <text x="1170.2" y="1185.0" text-anchor="middle" font-size="11.5" fill="#0f172a">
      <tspan x="1170.2" dy="0">FIN - Signaler : honnetete</tspan>
      <tspan x="1170.2" dy="14">non prouvee&quot;</tspan>
    </text>
    <rect x="896.4" y="874.0" width="177.2" height="48.0" rx="6.0" fill="#f8fafc" stroke="#334155" stroke-width="1.3"/>
    <text x="985.0" y="895.0" text-anchor="middle" font-size="11.5" fill="#0f172a">
      <tspan x="985.0" dy="0">&quot;Creer le snapshot de l</tspan>
      <tspan x="985.0" dy="14">etat du workspace&quot;</tspan>
    </text>
    <rect x="985.8" y="1026.0" width="177.2" height="48.0" rx="6.0" fill="#f8fafc" stroke="#334155" stroke-width="1.3"/>
    <text x="1074.4" y="1047.0" text-anchor="middle" font-size="11.5" fill="#0f172a">
      <tspan x="1074.4" dy="0">&quot;Verifier la rotation 7</tspan>
      <tspan x="1074.4" dy="14">jours&quot;</tspan>
    </text>
</svg>
