<?xml version="1.0" encoding="UTF-8"?>
<!-- Carte de decision de vulcain (parcours v0.6.5) - genere par convertir-carte-mermaid v0.3.0 -->
<svg xmlns="http://www.w3.org/2000/svg" width="1618" height="4134" viewBox="0 0 1618 4134" font-family="Arial, Helvetica, sans-serif">
  <defs>
    <marker id="fleche" viewBox="0 0 10 10" refX="9" refY="5" markerWidth="7" markerHeight="7" orient="auto-start-reverse">
      <path d="M 0 0 L 10 5 L 0 10 z" fill="#64748b"/>
    </marker>
  </defs>
  <rect width="1618" height="4134" fill="#ffffff"/>
    <path d="M 809.2 76.0 L 809.2 166.0" fill="none" stroke="#64748b" stroke-width="1.2" marker-end="url(#fleche)"/>
    <path d="M 809.2 202.0 L 809.2 292.0" fill="none" stroke="#64748b" stroke-width="1.2" marker-end="url(#fleche)"/>
    <path d="M 809.2 354.0 L 809.2 444.0" fill="none" stroke="#64748b" stroke-width="1.2" marker-end="url(#fleche)"/>
    <rect x="794.8" y="389.0" width="28.8" height="15" rx="3" fill="#ffffff" stroke="none"/>
    <text x="809.2" y="401.0" text-anchor="middle" font-size="10.5" fill="#1e293b">OUI</text>
    <path d="M 809.2 354.0 C 899.2 260.0, 899.2 260.0, 809.2 166.0" fill="none" stroke="#64748b" stroke-width="1.2" marker-end="url(#fleche)"/>
    <rect x="884.8" y="250.0" width="28.8" height="15" rx="3" fill="#ffffff" stroke="none"/>
    <text x="899.2" y="262.0" text-anchor="middle" font-size="10.5" fill="#1e293b">NON</text>
    <path d="M 809.2 934.0 L 809.2 1024.0" fill="none" stroke="#64748b" stroke-width="1.2" marker-end="url(#fleche)"/>
    <path d="M 809.2 1072.0 L 809.2 1162.0" fill="none" stroke="#64748b" stroke-width="1.2" marker-end="url(#fleche)"/>
    <path d="M 691.0 782.0 L 809.2 872.0" fill="none" stroke="#64748b" stroke-width="1.2" marker-end="url(#fleche)"/>
    <path d="M 809.2 492.0 L 809.2 582.0" fill="none" stroke="#64748b" stroke-width="1.2" marker-end="url(#fleche)"/>
    <path d="M 809.2 630.0 L 691.0 720.0" fill="none" stroke="#64748b" stroke-width="1.2" marker-end="url(#fleche)"/>
    <rect x="735.7" y="665.0" width="28.8" height="15" rx="3" fill="#ffffff" stroke="none"/>
    <text x="750.1" y="677.0" text-anchor="middle" font-size="10.5" fill="#1e293b">OUI</text>
    <path d="M 809.2 630.0 L 924.2 720.0" fill="none" stroke="#64748b" stroke-width="1.2" marker-end="url(#fleche)"/>
    <rect x="852.3" y="665.0" width="28.8" height="15" rx="3" fill="#ffffff" stroke="none"/>
    <text x="866.7" y="677.0" text-anchor="middle" font-size="10.5" fill="#1e293b">NON</text>
    <path d="M 691.0 1336.0 V 1401.0 H 608.0 V 1466.0" fill="none" stroke="#64748b" stroke-width="1.2" marker-end="url(#fleche)"/>
    <rect x="615.5" y="1391.0" width="68.0" height="15" rx="3" fill="#ffffff" stroke="none"/>
    <text x="649.5" y="1403.0" text-anchor="middle" font-size="10.5" fill="#1e293b">construire</text>
    <path d="M 691.0 1336.0 V 1401.0 H 818.8 V 1466.0" fill="none" stroke="#64748b" stroke-width="1.2" marker-end="url(#fleche)"/>
    <rect x="726.5" y="1391.0" width="56.8" height="15" rx="3" fill="#ffffff" stroke="none"/>
    <text x="754.9" y="1403.0" text-anchor="middle" font-size="10.5" fill="#1e293b">modifier</text>
    <path d="M 691.0 1336.0 V 1401.0 H 394.0 V 1466.0" fill="none" stroke="#64748b" stroke-width="1.2" marker-end="url(#fleche)"/>
    <rect x="522.5" y="1391.0" width="40.0" height="15" rx="3" fill="#ffffff" stroke="none"/>
    <text x="542.5" y="1403.0" text-anchor="middle" font-size="10.5" fill="#1e293b">autre</text>
    <path d="M 691.0 1336.0 V 1401.0 H 1036.0 V 1466.0" fill="none" stroke="#64748b" stroke-width="1.2" marker-end="url(#fleche)"/>
    <rect x="826.7" y="1391.0" width="73.6" height="15" rx="3" fill="#ffffff" stroke="none"/>
    <text x="863.5" y="1403.0" text-anchor="middle" font-size="10.5" fill="#1e293b">inter-round</text>
    <path d="M 173.6 1680.0 V 1732.0 H 138.6 V 1784.0" fill="none" stroke="#64748b" stroke-width="1.2" marker-end="url(#fleche)"/>
    <path d="M 138.6 1820.0 V 1878.0 H 288.6 V 1936.0" fill="none" stroke="#64748b" stroke-width="1.2" marker-end="url(#fleche)"/>
    <path d="M 288.6 1972.0 V 2030.0 H 598.4 V 2088.0" fill="none" stroke="#64748b" stroke-width="1.2" marker-end="url(#fleche)"/>
    <path d="M 598.4 2136.0 L 710.2 2226.0" fill="none" stroke="#64748b" stroke-width="1.2" marker-end="url(#fleche)"/>
    <path d="M 710.2 2288.0 L 608.0 2378.0" fill="none" stroke="#64748b" stroke-width="1.2" marker-end="url(#fleche)"/>
    <rect x="644.7" y="2323.0" width="28.8" height="15" rx="3" fill="#ffffff" stroke="none"/>
    <text x="659.1" y="2335.0" text-anchor="middle" font-size="10.5" fill="#1e293b">OUI</text>
    <path d="M 710.2 2288.0 L 818.8 2378.0" fill="none" stroke="#64748b" stroke-width="1.2" marker-end="url(#fleche)"/>
    <rect x="750.1" y="2323.0" width="28.8" height="15" rx="3" fill="#ffffff" stroke="none"/>
    <text x="764.5" y="2335.0" text-anchor="middle" font-size="10.5" fill="#1e293b">NON</text>
    <path d="M 608.0 2440.0 L 588.8 2530.0" fill="none" stroke="#64748b" stroke-width="1.2" marker-end="url(#fleche)"/>
    <path d="M 588.8 2606.0 C 678.8 2492.0, 908.8 2492.0, 818.8 2378.0" fill="none" stroke="#64748b" stroke-width="1.2" marker-end="url(#fleche)"/>
    <path d="M 818.8 2426.0 V 2478.0 H 822.0 V 2530.0" fill="none" stroke="#64748b" stroke-width="1.2" marker-end="url(#fleche)"/>
    <path d="M 822.0 2566.0 V 2631.0 H 598.4 V 2696.0" fill="none" stroke="#64748b" stroke-width="1.2" marker-end="url(#fleche)"/>
    <path d="M 598.4 2744.0 V 2796.0 H 687.8 V 2848.0" fill="none" stroke="#64748b" stroke-width="1.2" marker-end="url(#fleche)"/>
    <rect x="628.7" y="2786.0" width="28.8" height="15" rx="3" fill="#ffffff" stroke="none"/>
    <text x="643.1" y="2798.0" text-anchor="middle" font-size="10.5" fill="#1e293b">OUI</text>
    <path d="M 598.4 2744.0 V 2796.0 H 461.0 V 2848.0" fill="none" stroke="#64748b" stroke-width="1.2" marker-end="url(#fleche)"/>
    <rect x="515.3" y="2786.0" width="28.8" height="15" rx="3" fill="#ffffff" stroke="none"/>
    <text x="529.7" y="2798.0" text-anchor="middle" font-size="10.5" fill="#1e293b">NON</text>
    <path d="M 461.0 2924.0 C 551.0 2278.0, 477.6 2278.0, 387.6 1632.0" fill="none" stroke="#64748b" stroke-width="1.2" marker-end="url(#fleche)"/>
    <path d="M 694.2 3200.0 L 598.4 3290.0" fill="none" stroke="#64748b" stroke-width="1.2" marker-end="url(#fleche)"/>
    <rect x="631.9" y="3235.0" width="28.8" height="15" rx="3" fill="#ffffff" stroke="none"/>
    <text x="646.3" y="3247.0" text-anchor="middle" font-size="10.5" fill="#1e293b">OUI</text>
    <path d="M 694.2 3200.0 L 806.0 3290.0" fill="none" stroke="#64748b" stroke-width="1.2" marker-end="url(#fleche)"/>
    <rect x="735.7" y="3235.0" width="28.8" height="15" rx="3" fill="#ffffff" stroke="none"/>
    <text x="750.1" y="3247.0" text-anchor="middle" font-size="10.5" fill="#1e293b">NON</text>
    <path d="M 598.4 3338.0 L 582.4 3428.0" fill="none" stroke="#64748b" stroke-width="1.2" marker-end="url(#fleche)"/>
    <path d="M 582.4 3476.0 C 672.4 2554.0, 477.6 2554.0, 387.6 1632.0" fill="none" stroke="#64748b" stroke-width="1.2" marker-end="url(#fleche)"/>
    <path d="M 387.6 1694.0 L 1515.0 1784.0" fill="none" stroke="#64748b" stroke-width="1.2" marker-end="url(#fleche)"/>
    <path d="M 806.0 3338.0 L 812.4 3428.0" fill="none" stroke="#64748b" stroke-width="1.2" marker-end="url(#fleche)"/>
    <path d="M 812.4 3464.0 V 3515.0 H 601.6 V 3566.0" fill="none" stroke="#64748b" stroke-width="1.2" marker-end="url(#fleche)"/>
    <rect x="692.6" y="3505.0" width="28.8" height="15" rx="3" fill="#ffffff" stroke="none"/>
    <text x="707.0" y="3517.0" text-anchor="middle" font-size="10.5" fill="#1e293b">OUI</text>
    <path d="M 812.4 3464.0 C 907.4 3479.0, 907.4 3413.0, 812.4 3428.0" fill="none" stroke="#64748b" stroke-width="1.2" marker-end="url(#fleche)"/>
    <rect x="896.0" y="3436.0" width="28.8" height="15" rx="3" fill="#ffffff" stroke="none"/>
    <text x="910.4" y="3448.0" text-anchor="middle" font-size="10.5" fill="#1e293b">NON</text>
    <path d="M 707.0 3062.0 L 694.2 3152.0" fill="none" stroke="#64748b" stroke-width="1.2" marker-end="url(#fleche)"/>
    <path d="M 601.6 3628.0 L 579.2 3718.0" fill="none" stroke="#64748b" stroke-width="1.2" marker-end="url(#fleche)"/>
    <path d="M 394.0 1502.0 V 1567.0 H 838.0 V 1632.0" fill="none" stroke="#64748b" stroke-width="1.2" marker-end="url(#fleche)"/>
    <rect x="601.6" y="1557.0" width="28.8" height="15" rx="3" fill="#ffffff" stroke="none"/>
    <text x="616.0" y="1569.0" text-anchor="middle" font-size="10.5" fill="#1e293b">OUI</text>
    <path d="M 394.0 1502.0 V 1567.0 H 1048.8 V 1632.0" fill="none" stroke="#64748b" stroke-width="1.2" marker-end="url(#fleche)"/>
    <rect x="707.0" y="1557.0" width="28.8" height="15" rx="3" fill="#ffffff" stroke="none"/>
    <text x="721.4" y="1569.0" text-anchor="middle" font-size="10.5" fill="#1e293b">NON</text>
    <path d="M 394.0 1502.0 V 1567.0 H 611.2 V 1632.0" fill="none" stroke="#64748b" stroke-width="1.2" marker-end="url(#fleche)"/>
    <rect x="460.2" y="1557.0" width="84.8" height="15" rx="3" fill="#ffffff" stroke="none"/>
    <text x="502.6" y="1569.0" text-anchor="middle" font-size="10.5" fill="#1e293b">documentation</text>
    <path d="M 394.0 1502.0 V 1567.0 H 1444.8 V 1632.0" fill="none" stroke="#64748b" stroke-width="1.2" marker-end="url(#fleche)"/>
    <rect x="899.4" y="1557.0" width="40.0" height="15" rx="3" fill="#ffffff" stroke="none"/>
    <text x="919.4" y="1569.0" text-anchor="middle" font-size="10.5" fill="#1e293b">audit</text>
    <path d="M 611.2 1680.0 V 1732.0 H 349.4 V 1784.0" fill="none" stroke="#64748b" stroke-width="1.2" marker-end="url(#fleche)"/>
    <path d="M 349.4 1832.0 V 1884.0 H 480.2 V 1936.0" fill="none" stroke="#64748b" stroke-width="1.2" marker-end="url(#fleche)"/>
    <path d="M 480.2 1998.0 L 812.4 2088.0" fill="none" stroke="#64748b" stroke-width="1.2" marker-end="url(#fleche)"/>
    <path d="M 838.0 1668.0 V 1726.0 H 978.6 V 1784.0" fill="none" stroke="#64748b" stroke-width="1.2" marker-end="url(#fleche)"/>
    <path d="M 1048.8 1668.0 V 1726.0 H 761.4 V 1784.0" fill="none" stroke="#64748b" stroke-width="1.2" marker-end="url(#fleche)"/>
    <rect x="871.1" y="1716.0" width="68.0" height="15" rx="3" fill="#ffffff" stroke="none"/>
    <text x="905.1" y="1728.0" text-anchor="middle" font-size="10.5" fill="#1e293b">TEMPORAIRE</text>
    <path d="M 1048.8 1668.0 V 1726.0 H 547.4 V 1784.0" fill="none" stroke="#64748b" stroke-width="1.2" marker-end="url(#fleche)"/>
    <rect x="772.5" y="1716.0" width="51.2" height="15" rx="3" fill="#ffffff" stroke="none"/>
    <text x="798.1" y="1728.0" text-anchor="middle" font-size="10.5" fill="#1e293b">DURABLE</text>
    <path d="M 761.4 1820.0 V 1878.0 H 687.8 V 1936.0" fill="none" stroke="#64748b" stroke-width="1.2" marker-end="url(#fleche)"/>
    <path d="M 978.6 1846.0 L 885.8 1936.0" fill="none" stroke="#64748b" stroke-width="1.2" marker-end="url(#fleche)"/>
    <path d="M 608.0 1528.0 V 1580.0 H 1243.6 V 1632.0" fill="none" stroke="#64748b" stroke-width="1.2" marker-end="url(#fleche)"/>
    <path d="M 818.8 1528.0 V 1580.0 H 173.6 V 1632.0" fill="none" stroke="#64748b" stroke-width="1.2" marker-end="url(#fleche)"/>
    <path d="M 1036.0 1542.0 L 387.6 1632.0" fill="none" stroke="#64748b" stroke-width="1.2" marker-end="url(#fleche)"/>
    <path d="M 1243.6 1668.0 V 1726.0 H 1358.6 V 1784.0" fill="none" stroke="#64748b" stroke-width="1.2" marker-end="url(#fleche)"/>
    <path d="M 1444.8 1680.0 V 1732.0 H 1176.6 V 1784.0" fill="none" stroke="#64748b" stroke-width="1.2" marker-end="url(#fleche)"/>
    <path d="M 1176.6 1846.0 L 1080.6 1936.0" fill="none" stroke="#64748b" stroke-width="1.2" marker-end="url(#fleche)"/>
    <path d="M 921.0 3200.0 L 1016.8 3290.0" fill="none" stroke="#64748b" stroke-width="1.2" marker-end="url(#fleche)"/>
    <path d="M 687.8 2896.0 V 2955.0 H 707.0 V 3014.0" fill="none" stroke="#64748b" stroke-width="1.2" marker-end="url(#fleche)"/>
    <path d="M 1358.6 1832.0 V 1884.0 H 1304.2 V 1936.0" fill="none" stroke="#64748b" stroke-width="1.2" marker-end="url(#fleche)"/>
    <rect x="1317.0" y="1874.0" width="28.8" height="15" rx="3" fill="#ffffff" stroke="none"/>
    <text x="1331.4" y="1886.0" text-anchor="middle" font-size="10.5" fill="#1e293b">OUI</text>
    <path d="M 1358.6 1832.0 V 1884.0 H 1304.2 V 1936.0" fill="none" stroke="#64748b" stroke-width="1.2" marker-end="url(#fleche)"/>
    <rect x="1317.0" y="1874.0" width="28.8" height="15" rx="3" fill="#ffffff" stroke="none"/>
    <text x="1331.4" y="1886.0" text-anchor="middle" font-size="10.5" fill="#1e293b">NON</text>
    <path d="M 1304.2 1972.0 V 2030.0 H 1023.2 V 2088.0" fill="none" stroke="#64748b" stroke-width="1.2" marker-end="url(#fleche)"/>
    <path d="M 1023.2 2124.0 V 2175.0 H 921.0 V 2226.0" fill="none" stroke="#64748b" stroke-width="1.2" marker-end="url(#fleche)"/>
    <rect x="957.7" y="2165.0" width="28.8" height="15" rx="3" fill="#ffffff" stroke="none"/>
    <text x="972.1" y="2177.0" text-anchor="middle" font-size="10.5" fill="#1e293b">OUI</text>
    <path d="M 1023.2 2124.0 V 2175.0 H 921.0 V 2226.0" fill="none" stroke="#64748b" stroke-width="1.2" marker-end="url(#fleche)"/>
    <rect x="957.7" y="2165.0" width="28.8" height="15" rx="3" fill="#ffffff" stroke="none"/>
    <text x="972.1" y="2177.0" text-anchor="middle" font-size="10.5" fill="#1e293b">NON</text>
    <path d="M 921.0 2262.0 V 2320.0 H 1020.0 V 2378.0" fill="none" stroke="#64748b" stroke-width="1.2" marker-end="url(#fleche)"/>
    <path d="M 1020.0 2426.0 V 2478.0 H 1042.4 V 2530.0" fill="none" stroke="#64748b" stroke-width="1.2" marker-end="url(#fleche)"/>
    <path d="M 1042.4 2592.0 V 2644.0 H 825.2 V 2696.0" fill="none" stroke="#64748b" stroke-width="1.2" marker-end="url(#fleche)"/>
    <rect x="919.4" y="2634.0" width="28.8" height="15" rx="3" fill="#ffffff" stroke="none"/>
    <text x="933.8" y="2646.0" text-anchor="middle" font-size="10.5" fill="#1e293b">OUI</text>
    <path d="M 1042.4 2592.0 V 2644.0 H 1036.0 V 2696.0" fill="none" stroke="#64748b" stroke-width="1.2" marker-end="url(#fleche)"/>
    <rect x="1024.8" y="2634.0" width="28.8" height="15" rx="3" fill="#ffffff" stroke="none"/>
    <text x="1039.2" y="2646.0" text-anchor="middle" font-size="10.5" fill="#1e293b">NON</text>
    <path d="M 825.2 2758.0 L 927.4 2848.0" fill="none" stroke="#64748b" stroke-width="1.2" marker-end="url(#fleche)"/>
    <path d="M 927.4 2924.0 C 1017.4 2810.0, 1126.0 2810.0, 1036.0 2696.0" fill="none" stroke="#64748b" stroke-width="1.2" marker-end="url(#fleche)"/>
    <path d="M 1036.0 2744.0 V 2796.0 H 1160.6 V 2848.0" fill="none" stroke="#64748b" stroke-width="1.2" marker-end="url(#fleche)"/>
    <path d="M 1160.6 2884.0 V 2949.0 H 921.0 V 3014.0" fill="none" stroke="#64748b" stroke-width="1.2" marker-end="url(#fleche)"/>
    <path d="M 921.0 3062.0 L 921.0 3152.0" fill="none" stroke="#64748b" stroke-width="1.2" marker-end="url(#fleche)"/>
    <rect x="906.6" y="3097.0" width="28.8" height="15" rx="3" fill="#ffffff" stroke="none"/>
    <text x="921.0" y="3109.0" text-anchor="middle" font-size="10.5" fill="#1e293b">OUI</text>
    <path d="M 921.0 3062.0 C 1016.0 3077.0, 1016.0 2999.0, 921.0 3014.0" fill="none" stroke="#64748b" stroke-width="1.2" marker-end="url(#fleche)"/>
    <rect x="1004.6" y="3028.0" width="28.8" height="15" rx="3" fill="#ffffff" stroke="none"/>
    <text x="1019.0" y="3040.0" text-anchor="middle" font-size="10.5" fill="#1e293b">NON</text>
    <path d="M 1039.2 3476.0 L 809.2 3566.0" fill="none" stroke="#64748b" stroke-width="1.2" marker-end="url(#fleche)"/>
    <rect x="909.8" y="3511.0" width="28.8" height="15" rx="3" fill="#ffffff" stroke="none"/>
    <text x="924.2" y="3523.0" text-anchor="middle" font-size="10.5" fill="#1e293b">OUI</text>
    <path d="M 1039.2 3476.0 L 1016.8 3566.0" fill="none" stroke="#64748b" stroke-width="1.2" marker-end="url(#fleche)"/>
    <rect x="1013.6" y="3511.0" width="28.8" height="15" rx="3" fill="#ffffff" stroke="none"/>
    <text x="1028.0" y="3523.0" text-anchor="middle" font-size="10.5" fill="#1e293b">NON</text>
    <path d="M 809.2 3614.0 V 3666.0 H 806.0 V 3718.0" fill="none" stroke="#64748b" stroke-width="1.2" marker-end="url(#fleche)"/>
    <path d="M 806.0 3766.0 L 710.2 3856.0" fill="none" stroke="#64748b" stroke-width="1.2" marker-end="url(#fleche)"/>
    <path d="M 710.2 3918.0 C 800.2 2851.0, 1605.0 2851.0, 1515.0 1784.0" fill="none" stroke="#64748b" stroke-width="1.2" marker-end="url(#fleche)"/>
    <path d="M 1016.8 3614.0 V 3666.0 H 1036.0 V 3718.0" fill="none" stroke="#64748b" stroke-width="1.2" marker-end="url(#fleche)"/>
    <path d="M 1036.0 3754.0 V 3805.0 H 924.2 V 3856.0" fill="none" stroke="#64748b" stroke-width="1.2" marker-end="url(#fleche)"/>
    <rect x="965.7" y="3795.0" width="28.8" height="15" rx="3" fill="#ffffff" stroke="none"/>
    <text x="980.1" y="3807.0" text-anchor="middle" font-size="10.5" fill="#1e293b">OUI</text>
    <path d="M 1036.0 3754.0 C 1131.0 3769.0, 1131.0 3703.0, 1036.0 3718.0" fill="none" stroke="#64748b" stroke-width="1.2" marker-end="url(#fleche)"/>
    <rect x="1119.6" y="3726.0" width="28.8" height="15" rx="3" fill="#ffffff" stroke="none"/>
    <text x="1134.0" y="3738.0" text-anchor="middle" font-size="10.5" fill="#1e293b">NON</text>
    <path d="M 1016.8 3338.0 L 1039.2 3428.0" fill="none" stroke="#64748b" stroke-width="1.2" marker-end="url(#fleche)"/>
    <path d="M 924.2 3918.0 L 809.2 4008.0" fill="none" stroke="#64748b" stroke-width="1.2" marker-end="url(#fleche)"/>
    <path d="M 809.2 1210.0 L 873.0 1300.0" fill="none" stroke="#64748b" stroke-width="1.2" marker-end="url(#fleche)"/>
    <rect x="826.7" y="1245.0" width="28.8" height="15" rx="3" fill="#ffffff" stroke="none"/>
    <text x="841.1" y="1257.0" text-anchor="middle" font-size="10.5" fill="#1e293b">OUI</text>
    <path d="M 809.2 1210.0 L 691.0 1300.0" fill="none" stroke="#64748b" stroke-width="1.2" marker-end="url(#fleche)"/>
    <rect x="735.7" y="1245.0" width="28.8" height="15" rx="3" fill="#ffffff" stroke="none"/>
    <text x="750.1" y="1257.0" text-anchor="middle" font-size="10.5" fill="#1e293b">NON</text>
    <path d="M 873.0 1376.0 L 1240.4 1466.0" fill="none" stroke="#64748b" stroke-width="1.2" marker-end="url(#fleche)"/>
    <rect x="775.0" y="40.0" width="68.4" height="36.0" rx="18.0" fill="#e0f2fe" stroke="#1d4ed8" stroke-width="1.3"/>
    <text x="809.2" y="62.0" text-anchor="middle" font-size="11.5" fill="#0f172a">
      <tspan x="809.2" dy="0">Debut&quot;</tspan>
    </text>
    <rect x="777.2" y="166.0" width="64.0" height="36.0" rx="6.0" fill="#f8fafc" stroke="#334155" stroke-width="1.3"/>
    <text x="809.2" y="188.0" text-anchor="middle" font-size="11.5" fill="#0f172a">
      <tspan x="809.2" dy="0">c0</tspan>
    </text>
    <path d="M 809.2 292.0 L 901.0 323.0 L 809.2 354.0 L 717.4 323.0 Z" fill="#fef3c7" stroke="#b45309" stroke-width="1.3"/>
    <text x="809.2" y="313.0" text-anchor="middle" font-size="11.5" fill="#0f172a">
      <tspan x="809.2" dy="0">&quot;Confirmation : as-tu lu</tspan>
      <tspan x="809.2" dy="14">ta fiche et tes</tspan>
      <tspan x="809.2" dy="14">corrections ?&quot;</tspan>
    </text>
    <rect x="720.6" y="872.0" width="177.2" height="62.0" rx="6.0" fill="#f8fafc" stroke="#334155" stroke-width="1.3"/>
    <text x="809.2" y="893.0" text-anchor="middle" font-size="11.5" fill="#0f172a">
      <tspan x="809.2" dy="0">&quot;CONTEXTE OBLIGATOIRE :</tspan>
      <tspan x="809.2" dy="14">activite recente des</tspan>
      <tspan x="809.2" dy="14">agents&quot;</tspan>
    </text>
    <rect x="711.0" y="1024.0" width="196.4" height="48.0" rx="6.0" fill="#f8fafc" stroke="#334155" stroke-width="1.3"/>
    <text x="809.2" y="1045.0" text-anchor="middle" font-size="11.5" fill="#0f172a">
      <tspan x="809.2" dy="0">&quot;LIRE LA DOCUMENTATION DE</tspan>
      <tspan x="809.2" dy="14">L OUTIL avant utilisation&quot;</tspan>
    </text>
    <rect x="596.0" y="720.0" width="190.0" height="62.0" rx="6.0" fill="#f8fafc" stroke="#334155" stroke-width="1.3"/>
    <text x="691.0" y="741.0" text-anchor="middle" font-size="11.5" fill="#0f172a">
      <tspan x="691.0" dy="0">&quot;Consulter les lecons des</tspan>
      <tspan x="691.0" dy="14">autres agents (domaine de</tspan>
      <tspan x="691.0" dy="14">ma mission)&quot;</tspan>
    </text>
    <rect x="711.0" y="444.0" width="196.4" height="48.0" rx="6.0" fill="#f8fafc" stroke="#334155" stroke-width="1.3"/>
    <text x="809.2" y="465.0" text-anchor="middle" font-size="11.5" fill="#0f172a">
      <tspan x="809.2" dy="0">&quot;GATE BON AGENT : verifier</tspan>
      <tspan x="809.2" dy="14">que tu es LE BON AGENT&quot;</tspan>
    </text>
    <path d="M 809.2 582.0 L 907.4 606.0 L 809.2 630.0 L 711.0 606.0 Z" fill="#fef3c7" stroke="#b45309" stroke-width="1.3"/>
    <text x="809.2" y="603.0" text-anchor="middle" font-size="11.5" fill="#0f172a">
      <tspan x="809.2" dy="0">&quot;GATE : es-tu le bon agent</tspan>
      <tspan x="809.2" dy="14">?&quot;</tspan>
    </text>
    <rect x="826.0" y="720.0" width="196.4" height="48.0" rx="24.0" fill="#e0f2fe" stroke="#1d4ed8" stroke-width="1.3"/>
    <text x="924.2" y="741.0" text-anchor="middle" font-size="11.5" fill="#0f172a">
      <tspan x="924.2" dy="0">FIN - STOP : pas le bon</tspan>
      <tspan x="924.2" dy="14">agent, reactiver Cerberus&quot;</tspan>
    </text>
    <path d="M 691.0 1300.0 L 734.8 1318.0 L 691.0 1336.0 L 647.2 1318.0 Z" fill="#fef3c7" stroke="#b45309" stroke-width="1.3"/>
    <text x="691.0" y="1322.0" text-anchor="middle" font-size="11.5" fill="#0f172a">
      <tspan x="691.0" dy="0">&quot;Mission&quot;</tspan>
    </text>
    <rect x="94.6" y="1632.0" width="158.0" height="48.0" rx="6.0" fill="#f8fafc" stroke="#334155" stroke-width="1.3"/>
    <text x="173.6" y="1653.0" text-anchor="middle" font-size="11.5" fill="#0f172a">
      <tspan x="173.6" dy="0">&quot;Verifier le systeme</tspan>
      <tspan x="173.6" dy="14">(modification)&quot;</tspan>
    </text>
    <rect x="50.0" y="1784.0" width="177.2" height="36.0" rx="6.0" fill="#f8fafc" stroke="#334155" stroke-width="1.3"/>
    <text x="138.6" y="1806.0" text-anchor="middle" font-size="11.5" fill="#0f172a">
      <tspan x="138.6" dy="0">&quot;Lire l&apos;outil existant&quot;</tspan>
    </text>
    <rect x="216.0" y="1936.0" width="145.2" height="36.0" rx="6.0" fill="#f8fafc" stroke="#334155" stroke-width="1.3"/>
    <text x="288.6" y="1958.0" text-anchor="middle" font-size="11.5" fill="#0f172a">
      <tspan x="288.6" dy="0">&quot;Modifier l&apos;outil&quot;</tspan>
    </text>
    <rect x="503.4" y="2088.0" width="190.0" height="48.0" rx="6.0" fill="#f8fafc" stroke="#334155" stroke-width="1.3"/>
    <text x="598.4" y="2109.0" text-anchor="middle" font-size="11.5" fill="#0f172a">
      <tspan x="598.4" dy="0">&quot;Bumper l outil</tspan>
      <tspan x="598.4" dy="14">(mettre-a-jour-versions)&quot;</tspan>
    </text>
    <path d="M 710.2 2226.0 L 802.0 2257.0 L 710.2 2288.0 L 618.4 2257.0 Z" fill="#fef3c7" stroke="#b45309" stroke-width="1.3"/>
    <text x="710.2" y="2247.0" text-anchor="middle" font-size="11.5" fill="#0f172a">
      <tspan x="710.2" dy="0">&quot;L outil concerne est-il</tspan>
      <tspan x="710.2" dy="14">un COMBO ou le CATALOGUE</tspan>
      <tspan x="710.2" dy="14">?&quot;</tspan>
    </text>
    <rect x="503.4" y="2378.0" width="209.2" height="62.0" rx="6.0" fill="#f8fafc" stroke="#334155" stroke-width="1.3"/>
    <text x="608.0" y="2399.0" text-anchor="middle" font-size="11.5" fill="#0f172a">
      <tspan x="608.0" dy="0">&quot;Lancer le scan</tspan>
      <tspan x="608.0" dy="14">detecter-decalages-catalogue</tspan>
      <tspan x="608.0" dy="14">(section COMBOS)&quot;</tspan>
    </text>
    <rect x="484.2" y="2530.0" width="209.2" height="76.0" rx="6.0" fill="#f8fafc" stroke="#334155" stroke-width="1.3"/>
    <text x="588.8" y="2551.0" text-anchor="middle" font-size="11.5" fill="#0f172a">
      <tspan x="588.8" dy="0">&quot;Lancer le</tspan>
      <tspan x="588.8" dy="14">test-023-grep-budget-pondere</tspan>
      <tspan x="588.8" dy="14">(coherence budget</tspan>
      <tspan x="588.8" dy="14">pondere)&quot;</tspan>
    </text>
    <rect x="752.6" y="2378.0" width="132.4" height="48.0" rx="6.0" fill="#f8fafc" stroke="#334155" stroke-width="1.3"/>
    <text x="818.8" y="2399.0" text-anchor="middle" font-size="11.5" fill="#0f172a">
      <tspan x="818.8" dy="0">&quot;Lancer le combo</tspan>
      <tspan x="818.8" dy="14">corriger-ascii&quot;</tspan>
    </text>
    <rect x="733.4" y="2530.0" width="177.2" height="36.0" rx="6.0" fill="#f8fafc" stroke="#334155" stroke-width="1.3"/>
    <text x="822.0" y="2552.0" text-anchor="middle" font-size="11.5" fill="#0f172a">
      <tspan x="822.0" dy="0">&quot;RVAV avant activation&quot;</tspan>
    </text>
    <path d="M 598.4 2696.0 L 680.6 2720.0 L 598.4 2744.0 L 516.2 2720.0 Z" fill="#fef3c7" stroke="#b45309" stroke-width="1.3"/>
    <text x="598.4" y="2717.0" text-anchor="middle" font-size="11.5" fill="#0f172a">
      <tspan x="598.4" dy="0">&quot;Deleguer les tests a</tspan>
      <tspan x="598.4" dy="14">Morpheus&quot;</tspan>
    </text>
    <rect x="369.2" y="2848.0" width="183.6" height="76.0" rx="6.0" fill="#f8fafc" stroke="#334155" stroke-width="1.3"/>
    <text x="461.0" y="2869.0" text-anchor="middle" font-size="11.5" fill="#0f172a">
      <tspan x="461.0" dy="0">&quot;INTER-ROUND : activer l</tspan>
      <tspan x="461.0" dy="14">agent habilite pour</tspan>
      <tspan x="461.0" dy="14">reparer (tests non</tspan>
      <tspan x="461.0" dy="14">delegues)&quot;</tspan>
    </text>
    <rect x="487.4" y="3718.0" width="183.6" height="36.0" rx="18.0" fill="#e0f2fe" stroke="#1d4ed8" stroke-width="1.3"/>
    <text x="579.2" y="3740.0" text-anchor="middle" font-size="11.5" fill="#0f172a">
      <tspan x="579.2" dy="0">FIN - Modifier un outil&quot;</tspan>
    </text>
    <path d="M 694.2 3152.0 L 786.0 3176.0 L 694.2 3200.0 L 602.4 3176.0 Z" fill="#fef3c7" stroke="#b45309" stroke-width="1.3"/>
    <text x="694.2" y="3173.0" text-anchor="middle" font-size="11.5" fill="#0f172a">
      <tspan x="694.2" dy="0">&quot;Ameliorations possibles</tspan>
      <tspan x="694.2" dy="14">de mon fonctionnement ?&quot;</tspan>
    </text>
    <rect x="509.8" y="3290.0" width="177.2" height="48.0" rx="6.0" fill="#f8fafc" stroke="#334155" stroke-width="1.3"/>
    <text x="598.4" y="3311.0" text-anchor="middle" font-size="11.5" fill="#0f172a">
      <tspan x="598.4" dy="0">&quot;Lancer le generateur d</tspan>
      <tspan x="598.4" dy="14">amelioration&quot;</tspan>
    </text>
    <rect x="487.4" y="3428.0" width="190.0" height="48.0" rx="6.0" fill="#f8fafc" stroke="#334155" stroke-width="1.3"/>
    <text x="582.4" y="3449.0" text-anchor="middle" font-size="11.5" fill="#0f172a">
      <tspan x="582.4" dy="0">&quot;Activer l&apos;agent habilite</tspan>
      <tspan x="582.4" dy="14">pour l&apos;amelioration&quot;</tspan>
    </text>
    <rect x="292.6" y="1632.0" width="190.0" height="62.0" rx="31.0" fill="#e0f2fe" stroke="#1d4ed8" stroke-width="1.3"/>
    <text x="387.6" y="1653.0" text-anchor="middle" font-size="11.5" fill="#0f172a">
      <tspan x="387.6" dy="0">FIN - Reprise du parcours</tspan>
      <tspan x="387.6" dy="14">apres retour de l&apos;agent</tspan>
      <tspan x="387.6" dy="14">habilite&quot;</tspan>
    </text>
    <rect x="727.0" y="3290.0" width="158.0" height="48.0" rx="6.0" fill="#f8fafc" stroke="#334155" stroke-width="1.3"/>
    <text x="806.0" y="3311.0" text-anchor="middle" font-size="11.5" fill="#0f172a">
      <tspan x="806.0" dy="0">&quot;Activer Themis pour</tspan>
      <tspan x="806.0" dy="14">auditer ma mission&quot;</tspan>
    </text>
    <path d="M 812.4 3428.0 L 907.4 3446.0 L 812.4 3464.0 L 717.4 3446.0 Z" fill="#fef3c7" stroke="#b45309" stroke-width="1.3"/>
    <text x="812.4" y="3450.0" text-anchor="middle" font-size="11.5" fill="#0f172a">
      <tspan x="812.4" dy="0">&quot;Retour de Themis recu ?&quot;</tspan>
    </text>
    <rect x="615.2" y="3014.0" width="183.6" height="48.0" rx="6.0" fill="#f8fafc" stroke="#334155" stroke-width="1.3"/>
    <text x="707.0" y="3035.0" text-anchor="middle" font-size="11.5" fill="#0f172a">
      <tspan x="707.0" dy="0">&quot;Ajouter les lecons dans</tspan>
      <tspan x="707.0" dy="14">corrections.md&quot;</tspan>
    </text>
    <rect x="522.6" y="3566.0" width="158.0" height="62.0" rx="6.0" fill="#f8fafc" stroke="#334155" stroke-width="1.3"/>
    <text x="601.6" y="3587.0" text-anchor="middle" font-size="11.5" fill="#0f172a">
      <tspan x="601.6" dy="0">&quot;HISTORISER LA FIN :</tspan>
      <tspan x="601.6" dy="14">tracer la fin de mon</tspan>
      <tspan x="601.6" dy="14">intervention&quot;</tspan>
    </text>
    <path d="M 394.0 1466.0 L 482.6 1484.0 L 394.0 1502.0 L 305.4 1484.0 Z" fill="#fef3c7" stroke="#b45309" stroke-width="1.3"/>
    <text x="394.0" y="1488.0" text-anchor="middle" font-size="11.5" fill="#0f172a">
      <tspan x="394.0" dy="0">&quot;Mission hors parcours&quot;</tspan>
    </text>
    <rect x="522.6" y="1632.0" width="177.2" height="48.0" rx="6.0" fill="#f8fafc" stroke="#334155" stroke-width="1.3"/>
    <text x="611.2" y="1653.0" text-anchor="middle" font-size="11.5" fill="#0f172a">
      <tspan x="611.2" dy="0">&quot;Documentation / Mise a</tspan>
      <tspan x="611.2" dy="14">jour de ma fiche&quot;</tspan>
    </text>
    <rect x="267.2" y="1784.0" width="164.4" height="48.0" rx="6.0" fill="#f8fafc" stroke="#334155" stroke-width="1.3"/>
    <text x="349.4" y="1805.0" text-anchor="middle" font-size="11.5" fill="#0f172a">
      <tspan x="349.4" dy="0">&quot;RVAV avant reactiver</tspan>
      <tspan x="349.4" dy="14">Cerberus&quot;</tspan>
    </text>
    <rect x="733.4" y="2088.0" width="158.0" height="36.0" rx="18.0" fill="#e0f2fe" stroke="#1d4ed8" stroke-width="1.3"/>
    <text x="812.4" y="2110.0" text-anchor="middle" font-size="11.5" fill="#0f172a">
      <tspan x="812.4" dy="0">FIN - Documentation&quot;</tspan>
    </text>
    <rect x="401.2" y="1936.0" width="158.0" height="62.0" rx="6.0" fill="#f8fafc" stroke="#334155" stroke-width="1.3"/>
    <text x="480.2" y="1957.0" text-anchor="middle" font-size="11.5" fill="#0f172a">
      <tspan x="480.2" dy="0">&quot;HISTORISER LA FIN :</tspan>
      <tspan x="480.2" dy="14">tracer la fin de mon</tspan>
      <tspan x="480.2" dy="14">intervention&quot;</tspan>
    </text>
    <rect x="739.8" y="1632.0" width="196.4" height="36.0" rx="6.0" fill="#f8fafc" stroke="#334155" stroke-width="1.3"/>
    <text x="838.0" y="1654.0" text-anchor="middle" font-size="11.5" fill="#0f172a">
      <tspan x="838.0" dy="0">&quot;Activer l&apos;agent habilite&quot;</tspan>
    </text>
    <rect x="471.6" y="1784.0" width="151.6" height="36.0" rx="18.0" fill="#e0f2fe" stroke="#1d4ed8" stroke-width="1.3"/>
    <text x="547.4" y="1806.0" text-anchor="middle" font-size="11.5" fill="#0f172a">
      <tspan x="547.4" dy="0">Signaler le besoin&quot;</tspan>
    </text>
    <path d="M 1048.8 1632.0 L 1121.4 1650.0 L 1048.8 1668.0 L 976.2 1650.0 Z" fill="#fef3c7" stroke="#b45309" stroke-width="1.3"/>
    <text x="1048.8" y="1654.0" text-anchor="middle" font-size="11.5" fill="#0f172a">
      <tspan x="1048.8" dy="0">&quot;Besoin d outil ?&quot;</tspan>
    </text>
    <rect x="663.2" y="1784.0" width="196.4" height="36.0" rx="6.0" fill="#f8fafc" stroke="#334155" stroke-width="1.3"/>
    <text x="761.4" y="1806.0" text-anchor="middle" font-size="11.5" fill="#0f172a">
      <tspan x="761.4" dy="0">&quot;Creer l outil temporaire&quot;</tspan>
    </text>
    <rect x="599.2" y="1936.0" width="177.2" height="36.0" rx="18.0" fill="#e0f2fe" stroke="#1d4ed8" stroke-width="1.3"/>
    <text x="687.8" y="1958.0" text-anchor="middle" font-size="11.5" fill="#0f172a">
      <tspan x="687.8" dy="0">FIN - Outil temporaire&quot;</tspan>
    </text>
    <rect x="816.4" y="1936.0" width="138.8" height="36.0" rx="18.0" fill="#e0f2fe" stroke="#1d4ed8" stroke-width="1.3"/>
    <text x="885.8" y="1958.0" text-anchor="middle" font-size="11.5" fill="#0f172a">
      <tspan x="885.8" dy="0">FIN - Delegation&quot;</tspan>
    </text>
    <rect x="899.6" y="1784.0" width="158.0" height="62.0" rx="6.0" fill="#f8fafc" stroke="#334155" stroke-width="1.3"/>
    <text x="978.6" y="1805.0" text-anchor="middle" font-size="11.5" fill="#0f172a">
      <tspan x="978.6" dy="0">&quot;HISTORISER LA FIN :</tspan>
      <tspan x="978.6" dy="14">tracer la fin de mon</tspan>
      <tspan x="978.6" dy="14">intervention&quot;</tspan>
    </text>
    <rect x="522.6" y="1466.0" width="170.8" height="62.0" rx="6.0" fill="#f8fafc" stroke="#334155" stroke-width="1.3"/>
    <text x="608.0" y="1487.0" text-anchor="middle" font-size="11.5" fill="#0f172a">
      <tspan x="608.0" dy="0">&quot;HISTORISER LE DEBUT :</tspan>
      <tspan x="608.0" dy="14">tracer le debut de mon</tspan>
      <tspan x="608.0" dy="14">intervention&quot;</tspan>
    </text>
    <rect x="733.4" y="1466.0" width="170.8" height="62.0" rx="6.0" fill="#f8fafc" stroke="#334155" stroke-width="1.3"/>
    <text x="818.8" y="1487.0" text-anchor="middle" font-size="11.5" fill="#0f172a">
      <tspan x="818.8" dy="0">&quot;HISTORISER LE DEBUT :</tspan>
      <tspan x="818.8" dy="14">tracer le debut de mon</tspan>
      <tspan x="818.8" dy="14">intervention&quot;</tspan>
    </text>
    <rect x="944.2" y="1466.0" width="183.6" height="76.0" rx="6.0" fill="#f8fafc" stroke="#334155" stroke-width="1.3"/>
    <text x="1036.0" y="1487.0" text-anchor="middle" font-size="11.5" fill="#0f172a">
      <tspan x="1036.0" dy="0">&quot;RECEPTION INTER-ROUND :</tspan>
      <tspan x="1036.0" dy="14">accuser reception du</tspan>
      <tspan x="1036.0" dy="14">rapport KO et activer l</tspan>
      <tspan x="1036.0" dy="14">appelant&quot;</tspan>
    </text>
    <rect x="1161.4" y="1632.0" width="164.4" height="36.0" rx="6.0" fill="#f8fafc" stroke="#334155" stroke-width="1.3"/>
    <text x="1243.6" y="1654.0" text-anchor="middle" font-size="11.5" fill="#0f172a">
      <tspan x="1243.6" dy="0">&quot;Verifier le systeme&quot;</tspan>
    </text>
    <rect x="1365.8" y="1632.0" width="158.0" height="48.0" rx="6.0" fill="#f8fafc" stroke="#334155" stroke-width="1.3"/>
    <text x="1444.8" y="1653.0" text-anchor="middle" font-size="11.5" fill="#0f172a">
      <tspan x="1444.8" dy="0">&quot;Activer Themis pour</tspan>
      <tspan x="1444.8" dy="14">auditer&quot;</tspan>
    </text>
    <rect x="995.2" y="1936.0" width="170.8" height="48.0" rx="24.0" fill="#e0f2fe" stroke="#1d4ed8" stroke-width="1.3"/>
    <text x="1080.6" y="1957.0" text-anchor="middle" font-size="11.5" fill="#0f172a">
      <tspan x="1080.6" dy="0">FIN - Retour de Themis</tspan>
      <tspan x="1080.6" dy="14">avec son rapport&quot;</tspan>
    </text>
    <rect x="1097.6" y="1784.0" width="158.0" height="62.0" rx="6.0" fill="#f8fafc" stroke="#334155" stroke-width="1.3"/>
    <text x="1176.6" y="1805.0" text-anchor="middle" font-size="11.5" fill="#0f172a">
      <tspan x="1176.6" dy="0">&quot;HISTORISER LA FIN :</tspan>
      <tspan x="1176.6" dy="14">tracer la fin de mon</tspan>
      <tspan x="1176.6" dy="14">intervention&quot;</tspan>
    </text>
    <rect x="826.0" y="3152.0" width="190.0" height="48.0" rx="6.0" fill="#f8fafc" stroke="#334155" stroke-width="1.3"/>
    <text x="921.0" y="3173.0" text-anchor="middle" font-size="11.5" fill="#0f172a">
      <tspan x="921.0" dy="0">&quot;Enregistrer mes usages d</tspan>
      <tspan x="921.0" dy="14">outils&quot;</tspan>
    </text>
    <rect x="592.8" y="2848.0" width="190.0" height="48.0" rx="6.0" fill="#f8fafc" stroke="#334155" stroke-width="1.3"/>
    <text x="687.8" y="2869.0" text-anchor="middle" font-size="11.5" fill="#0f172a">
      <tspan x="687.8" dy="0">&quot;Enregistrer mes usages d</tspan>
      <tspan x="687.8" dy="14">outils&quot;</tspan>
    </text>
    <path d="M 1358.6 1784.0 L 1421.6 1808.0 L 1358.6 1832.0 L 1295.6 1808.0 Z" fill="#fef3c7" stroke="#b45309" stroke-width="1.3"/>
    <text x="1358.6" y="1805.0" text-anchor="middle" font-size="11.5" fill="#0f172a">
      <tspan x="1358.6" dy="0">&quot;Lire l&apos;outil a</tspan>
      <tspan x="1358.6" dy="14">construire&quot;</tspan>
    </text>
    <rect x="1206.0" y="1936.0" width="196.4" height="36.0" rx="6.0" fill="#f8fafc" stroke="#334155" stroke-width="1.3"/>
    <text x="1304.2" y="1958.0" text-anchor="middle" font-size="11.5" fill="#0f172a">
      <tspan x="1304.2" dy="0">&quot;Copier le outil-template&quot;</tspan>
    </text>
    <path d="M 1023.2 2088.0 L 1115.0 2106.0 L 1023.2 2124.0 L 931.4 2106.0 Z" fill="#fef3c7" stroke="#b45309" stroke-width="1.3"/>
    <text x="1023.2" y="2110.0" text-anchor="middle" font-size="11.5" fill="#0f172a">
      <tspan x="1023.2" dy="0">&quot;Choisir la technologie&quot;</tspan>
    </text>
    <rect x="842.0" y="2226.0" width="158.0" height="36.0" rx="6.0" fill="#f8fafc" stroke="#334155" stroke-width="1.3"/>
    <text x="921.0" y="2248.0" text-anchor="middle" font-size="11.5" fill="#0f172a">
      <tspan x="921.0" dy="0">&quot;Developper l&apos;outil&quot;</tspan>
    </text>
    <rect x="925.0" y="2378.0" width="190.0" height="48.0" rx="6.0" fill="#f8fafc" stroke="#334155" stroke-width="1.3"/>
    <text x="1020.0" y="2399.0" text-anchor="middle" font-size="11.5" fill="#0f172a">
      <tspan x="1020.0" dy="0">&quot;Bumper l outil</tspan>
      <tspan x="1020.0" dy="14">(mettre-a-jour-versions)&quot;</tspan>
    </text>
    <path d="M 1042.4 2530.0 L 1134.2 2561.0 L 1042.4 2592.0 L 950.6 2561.0 Z" fill="#fef3c7" stroke="#b45309" stroke-width="1.3"/>
    <text x="1042.4" y="2551.0" text-anchor="middle" font-size="11.5" fill="#0f172a">
      <tspan x="1042.4" dy="0">&quot;L outil concerne est-il</tspan>
      <tspan x="1042.4" dy="14">un COMBO ou le CATALOGUE</tspan>
      <tspan x="1042.4" dy="14">?&quot;</tspan>
    </text>
    <rect x="720.6" y="2696.0" width="209.2" height="62.0" rx="6.0" fill="#f8fafc" stroke="#334155" stroke-width="1.3"/>
    <text x="825.2" y="2717.0" text-anchor="middle" font-size="11.5" fill="#0f172a">
      <tspan x="825.2" dy="0">&quot;Lancer le scan</tspan>
      <tspan x="825.2" dy="14">detecter-decalages-catalogue</tspan>
      <tspan x="825.2" dy="14">(section COMBOS)&quot;</tspan>
    </text>
    <rect x="822.8" y="2848.0" width="209.2" height="76.0" rx="6.0" fill="#f8fafc" stroke="#334155" stroke-width="1.3"/>
    <text x="927.4" y="2869.0" text-anchor="middle" font-size="11.5" fill="#0f172a">
      <tspan x="927.4" dy="0">&quot;Lancer le</tspan>
      <tspan x="927.4" dy="14">test-023-grep-budget-pondere</tspan>
      <tspan x="927.4" dy="14">(coherence budget</tspan>
      <tspan x="927.4" dy="14">pondere)&quot;</tspan>
    </text>
    <rect x="969.8" y="2696.0" width="132.4" height="48.0" rx="6.0" fill="#f8fafc" stroke="#334155" stroke-width="1.3"/>
    <text x="1036.0" y="2717.0" text-anchor="middle" font-size="11.5" fill="#0f172a">
      <tspan x="1036.0" dy="0">&quot;Lancer le combo</tspan>
      <tspan x="1036.0" dy="14">corriger-ascii&quot;</tspan>
    </text>
    <rect x="1072.0" y="2848.0" width="177.2" height="36.0" rx="6.0" fill="#f8fafc" stroke="#334155" stroke-width="1.3"/>
    <text x="1160.6" y="2870.0" text-anchor="middle" font-size="11.5" fill="#0f172a">
      <tspan x="1160.6" dy="0">&quot;RVAV avant activation&quot;</tspan>
    </text>
    <path d="M 921.0 3014.0 L 1003.2 3038.0 L 921.0 3062.0 L 838.8 3038.0 Z" fill="#fef3c7" stroke="#b45309" stroke-width="1.3"/>
    <text x="921.0" y="3035.0" text-anchor="middle" font-size="11.5" fill="#0f172a">
      <tspan x="921.0" dy="0">&quot;Deleguer les tests a</tspan>
      <tspan x="921.0" dy="14">Morpheus&quot;</tspan>
    </text>
    <rect x="711.0" y="4008.0" width="196.4" height="36.0" rx="18.0" fill="#e0f2fe" stroke="#1d4ed8" stroke-width="1.3"/>
    <text x="809.2" y="4030.0" text-anchor="middle" font-size="11.5" fill="#0f172a">
      <tspan x="809.2" dy="0">FIN - Construire un outil&quot;</tspan>
    </text>
    <path d="M 1039.2 3428.0 L 1131.0 3452.0 L 1039.2 3476.0 L 947.4 3452.0 Z" fill="#fef3c7" stroke="#b45309" stroke-width="1.3"/>
    <text x="1039.2" y="3449.0" text-anchor="middle" font-size="11.5" fill="#0f172a">
      <tspan x="1039.2" dy="0">&quot;Ameliorations possibles</tspan>
      <tspan x="1039.2" dy="14">de mon fonctionnement ?&quot;</tspan>
    </text>
    <rect x="720.6" y="3566.0" width="177.2" height="48.0" rx="6.0" fill="#f8fafc" stroke="#334155" stroke-width="1.3"/>
    <text x="809.2" y="3587.0" text-anchor="middle" font-size="11.5" fill="#0f172a">
      <tspan x="809.2" dy="0">&quot;Lancer le generateur d</tspan>
      <tspan x="809.2" dy="14">amelioration&quot;</tspan>
    </text>
    <rect x="711.0" y="3718.0" width="190.0" height="48.0" rx="6.0" fill="#f8fafc" stroke="#334155" stroke-width="1.3"/>
    <text x="806.0" y="3739.0" text-anchor="middle" font-size="11.5" fill="#0f172a">
      <tspan x="806.0" dy="0">&quot;Activer l&apos;agent habilite</tspan>
      <tspan x="806.0" dy="14">pour l&apos;amelioration&quot;</tspan>
    </text>
    <rect x="615.2" y="3856.0" width="190.0" height="62.0" rx="31.0" fill="#e0f2fe" stroke="#1d4ed8" stroke-width="1.3"/>
    <text x="710.2" y="3877.0" text-anchor="middle" font-size="11.5" fill="#0f172a">
      <tspan x="710.2" dy="0">FIN - Reprise du parcours</tspan>
      <tspan x="710.2" dy="14">apres retour de l&apos;agent</tspan>
      <tspan x="710.2" dy="14">habilite&quot;</tspan>
    </text>
    <rect x="937.8" y="3566.0" width="158.0" height="48.0" rx="6.0" fill="#f8fafc" stroke="#334155" stroke-width="1.3"/>
    <text x="1016.8" y="3587.0" text-anchor="middle" font-size="11.5" fill="#0f172a">
      <tspan x="1016.8" dy="0">&quot;Activer Themis pour</tspan>
      <tspan x="1016.8" dy="14">auditer ma mission&quot;</tspan>
    </text>
    <path d="M 1036.0 3718.0 L 1131.0 3736.0 L 1036.0 3754.0 L 941.0 3736.0 Z" fill="#fef3c7" stroke="#b45309" stroke-width="1.3"/>
    <text x="1036.0" y="3740.0" text-anchor="middle" font-size="11.5" fill="#0f172a">
      <tspan x="1036.0" dy="0">&quot;Retour de Themis recu ?&quot;</tspan>
    </text>
    <rect x="925.0" y="3290.0" width="183.6" height="48.0" rx="6.0" fill="#f8fafc" stroke="#334155" stroke-width="1.3"/>
    <text x="1016.8" y="3311.0" text-anchor="middle" font-size="11.5" fill="#0f172a">
      <tspan x="1016.8" dy="0">&quot;Ajouter les lecons dans</tspan>
      <tspan x="1016.8" dy="14">corrections.md&quot;</tspan>
    </text>
    <rect x="845.2" y="3856.0" width="158.0" height="62.0" rx="6.0" fill="#f8fafc" stroke="#334155" stroke-width="1.3"/>
    <text x="924.2" y="3877.0" text-anchor="middle" font-size="11.5" fill="#0f172a">
      <tspan x="924.2" dy="0">&quot;HISTORISER LA FIN :</tspan>
      <tspan x="924.2" dy="14">tracer la fin de mon</tspan>
      <tspan x="924.2" dy="14">intervention&quot;</tspan>
    </text>
    <path d="M 809.2 1162.0 L 907.4 1186.0 L 809.2 1210.0 L 711.0 1186.0 Z" fill="#fef3c7" stroke="#b45309" stroke-width="1.3"/>
    <text x="809.2" y="1183.0" text-anchor="middle" font-size="11.5" fill="#0f172a">
      <tspan x="809.2" dy="0">&quot;Probleme avec un outil en</tspan>
      <tspan x="809.2" dy="14">cours de mission ?&quot;</tspan>
    </text>
    <rect x="774.8" y="1300.0" width="196.4" height="76.0" rx="6.0" fill="#f8fafc" stroke="#334155" stroke-width="1.3"/>
    <text x="873.0" y="1321.0" text-anchor="middle" font-size="11.5" fill="#0f172a">
      <tspan x="873.0" dy="0">&quot;COMPRENDRE L OUTIL : lire</tspan>
      <tspan x="873.0" dy="14">le .md puis</tspan>
      <tspan x="873.0" dy="14">generateurs-commande ou</tspan>
      <tspan x="873.0" dy="14">combo&quot;</tspan>
    </text>
    <rect x="1167.8" y="1466.0" width="145.2" height="48.0" rx="24.0" fill="#e0f2fe" stroke="#1d4ed8" stroke-width="1.3"/>
    <text x="1240.4" y="1487.0" text-anchor="middle" font-size="11.5" fill="#0f172a">
      <tspan x="1240.4" dy="0">FIN - Reprendre ma</tspan>
      <tspan x="1240.4" dy="14">mission&quot;</tspan>
    </text>
    <rect x="1461.6" y="1784.0" width="106.8" height="36.0" rx="18.0" fill="#fce7f3" stroke="#be185d" stroke-width="1.3"/>
    <text x="1515.0" y="1806.0" text-anchor="middle" font-size="11.5" fill="#0f172a">
      <tspan x="1515.0" dy="0">FIN-APPELANT</tspan>
    </text>
</svg>
