<?xml version="1.0" encoding="UTF-8"?>
<!-- Carte de decision de vulcain (parcours v0.6.5) - genere par convertir-carte-mermaid v0.3.0 -->
<svg xmlns="http://www.w3.org/2000/svg" width="1618" height="3858" viewBox="0 0 1618 3858" font-family="Arial, Helvetica, sans-serif">
  <defs>
    <marker id="fleche" viewBox="0 0 10 10" refX="9" refY="5" markerWidth="7" markerHeight="7" orient="auto-start-reverse">
      <path d="M 0 0 L 10 5 L 0 10 z" fill="#64748b"/>
    </marker>
  </defs>
  <rect width="1618" height="3858" fill="#ffffff"/>
    <path d="M 809.2 76.0 L 809.2 166.0" fill="none" stroke="#64748b" stroke-width="1.2" marker-end="url(#fleche)"/>
    <path d="M 809.2 202.0 L 809.2 292.0" fill="none" stroke="#64748b" stroke-width="1.2" marker-end="url(#fleche)"/>
    <path d="M 809.2 354.0 L 809.2 444.0" fill="none" stroke="#64748b" stroke-width="1.2" marker-end="url(#fleche)"/>
    <rect x="794.8" y="389.0" width="28.8" height="15" rx="3" fill="#ffffff" stroke="none"/>
    <text x="809.2" y="401.0" text-anchor="middle" font-size="10.5" fill="#1e293b">OUI</text>
    <path d="M 809.2 354.0 C 899.2 260.0, 899.2 260.0, 809.2 166.0" fill="none" stroke="#64748b" stroke-width="1.2" marker-end="url(#fleche)"/>
    <rect x="884.8" y="250.0" width="28.8" height="15" rx="3" fill="#ffffff" stroke="none"/>
    <text x="899.2" y="262.0" text-anchor="middle" font-size="10.5" fill="#1e293b">NON</text>
    <path d="M 809.2 658.0 L 809.2 748.0" fill="none" stroke="#64748b" stroke-width="1.2" marker-end="url(#fleche)"/>
    <path d="M 809.2 796.0 L 809.2 886.0" fill="none" stroke="#64748b" stroke-width="1.2" marker-end="url(#fleche)"/>
    <path d="M 809.2 506.0 L 809.2 596.0" fill="none" stroke="#64748b" stroke-width="1.2" marker-end="url(#fleche)"/>
    <path d="M 691.0 1060.0 V 1125.0 H 608.0 V 1190.0" fill="none" stroke="#64748b" stroke-width="1.2" marker-end="url(#fleche)"/>
    <rect x="615.5" y="1115.0" width="68.0" height="15" rx="3" fill="#ffffff" stroke="none"/>
    <text x="649.5" y="1127.0" text-anchor="middle" font-size="10.5" fill="#1e293b">construire</text>
    <path d="M 691.0 1060.0 V 1125.0 H 818.8 V 1190.0" fill="none" stroke="#64748b" stroke-width="1.2" marker-end="url(#fleche)"/>
    <rect x="726.5" y="1115.0" width="56.8" height="15" rx="3" fill="#ffffff" stroke="none"/>
    <text x="754.9" y="1127.0" text-anchor="middle" font-size="10.5" fill="#1e293b">modifier</text>
    <path d="M 691.0 1060.0 V 1125.0 H 394.0 V 1190.0" fill="none" stroke="#64748b" stroke-width="1.2" marker-end="url(#fleche)"/>
    <rect x="522.5" y="1115.0" width="40.0" height="15" rx="3" fill="#ffffff" stroke="none"/>
    <text x="542.5" y="1127.0" text-anchor="middle" font-size="10.5" fill="#1e293b">autre</text>
    <path d="M 691.0 1060.0 V 1125.0 H 1036.0 V 1190.0" fill="none" stroke="#64748b" stroke-width="1.2" marker-end="url(#fleche)"/>
    <rect x="826.7" y="1115.0" width="73.6" height="15" rx="3" fill="#ffffff" stroke="none"/>
    <text x="863.5" y="1127.0" text-anchor="middle" font-size="10.5" fill="#1e293b">inter-round</text>
    <path d="M 173.6 1404.0 V 1456.0 H 138.6 V 1508.0" fill="none" stroke="#64748b" stroke-width="1.2" marker-end="url(#fleche)"/>
    <path d="M 138.6 1544.0 V 1602.0 H 288.6 V 1660.0" fill="none" stroke="#64748b" stroke-width="1.2" marker-end="url(#fleche)"/>
    <path d="M 288.6 1696.0 V 1754.0 H 598.4 V 1812.0" fill="none" stroke="#64748b" stroke-width="1.2" marker-end="url(#fleche)"/>
    <path d="M 598.4 1860.0 L 710.2 1950.0" fill="none" stroke="#64748b" stroke-width="1.2" marker-end="url(#fleche)"/>
    <path d="M 710.2 2012.0 L 608.0 2102.0" fill="none" stroke="#64748b" stroke-width="1.2" marker-end="url(#fleche)"/>
    <rect x="644.7" y="2047.0" width="28.8" height="15" rx="3" fill="#ffffff" stroke="none"/>
    <text x="659.1" y="2059.0" text-anchor="middle" font-size="10.5" fill="#1e293b">OUI</text>
    <path d="M 710.2 2012.0 L 818.8 2102.0" fill="none" stroke="#64748b" stroke-width="1.2" marker-end="url(#fleche)"/>
    <rect x="750.1" y="2047.0" width="28.8" height="15" rx="3" fill="#ffffff" stroke="none"/>
    <text x="764.5" y="2059.0" text-anchor="middle" font-size="10.5" fill="#1e293b">NON</text>
    <path d="M 608.0 2164.0 L 588.8 2254.0" fill="none" stroke="#64748b" stroke-width="1.2" marker-end="url(#fleche)"/>
    <path d="M 588.8 2330.0 C 678.8 2216.0, 908.8 2216.0, 818.8 2102.0" fill="none" stroke="#64748b" stroke-width="1.2" marker-end="url(#fleche)"/>
    <path d="M 818.8 2150.0 V 2202.0 H 822.0 V 2254.0" fill="none" stroke="#64748b" stroke-width="1.2" marker-end="url(#fleche)"/>
    <path d="M 822.0 2290.0 V 2355.0 H 598.4 V 2420.0" fill="none" stroke="#64748b" stroke-width="1.2" marker-end="url(#fleche)"/>
    <path d="M 598.4 2468.0 V 2520.0 H 687.8 V 2572.0" fill="none" stroke="#64748b" stroke-width="1.2" marker-end="url(#fleche)"/>
    <rect x="628.7" y="2510.0" width="28.8" height="15" rx="3" fill="#ffffff" stroke="none"/>
    <text x="643.1" y="2522.0" text-anchor="middle" font-size="10.5" fill="#1e293b">OUI</text>
    <path d="M 598.4 2468.0 V 2520.0 H 461.0 V 2572.0" fill="none" stroke="#64748b" stroke-width="1.2" marker-end="url(#fleche)"/>
    <rect x="515.3" y="2510.0" width="28.8" height="15" rx="3" fill="#ffffff" stroke="none"/>
    <text x="529.7" y="2522.0" text-anchor="middle" font-size="10.5" fill="#1e293b">NON</text>
    <path d="M 461.0 2648.0 C 551.0 2002.0, 477.6 2002.0, 387.6 1356.0" fill="none" stroke="#64748b" stroke-width="1.2" marker-end="url(#fleche)"/>
    <path d="M 694.2 2924.0 L 598.4 3014.0" fill="none" stroke="#64748b" stroke-width="1.2" marker-end="url(#fleche)"/>
    <rect x="631.9" y="2959.0" width="28.8" height="15" rx="3" fill="#ffffff" stroke="none"/>
    <text x="646.3" y="2971.0" text-anchor="middle" font-size="10.5" fill="#1e293b">OUI</text>
    <path d="M 694.2 2924.0 L 806.0 3014.0" fill="none" stroke="#64748b" stroke-width="1.2" marker-end="url(#fleche)"/>
    <rect x="735.7" y="2959.0" width="28.8" height="15" rx="3" fill="#ffffff" stroke="none"/>
    <text x="750.1" y="2971.0" text-anchor="middle" font-size="10.5" fill="#1e293b">NON</text>
    <path d="M 598.4 3062.0 L 582.4 3152.0" fill="none" stroke="#64748b" stroke-width="1.2" marker-end="url(#fleche)"/>
    <path d="M 582.4 3200.0 C 672.4 2278.0, 477.6 2278.0, 387.6 1356.0" fill="none" stroke="#64748b" stroke-width="1.2" marker-end="url(#fleche)"/>
    <path d="M 387.6 1418.0 L 1515.0 1508.0" fill="none" stroke="#64748b" stroke-width="1.2" marker-end="url(#fleche)"/>
    <path d="M 806.0 3062.0 L 812.4 3152.0" fill="none" stroke="#64748b" stroke-width="1.2" marker-end="url(#fleche)"/>
    <path d="M 812.4 3188.0 V 3239.0 H 601.6 V 3290.0" fill="none" stroke="#64748b" stroke-width="1.2" marker-end="url(#fleche)"/>
    <rect x="692.6" y="3229.0" width="28.8" height="15" rx="3" fill="#ffffff" stroke="none"/>
    <text x="707.0" y="3241.0" text-anchor="middle" font-size="10.5" fill="#1e293b">OUI</text>
    <path d="M 812.4 3188.0 C 907.4 3203.0, 907.4 3137.0, 812.4 3152.0" fill="none" stroke="#64748b" stroke-width="1.2" marker-end="url(#fleche)"/>
    <rect x="896.0" y="3160.0" width="28.8" height="15" rx="3" fill="#ffffff" stroke="none"/>
    <text x="910.4" y="3172.0" text-anchor="middle" font-size="10.5" fill="#1e293b">NON</text>
    <path d="M 707.0 2786.0 L 694.2 2876.0" fill="none" stroke="#64748b" stroke-width="1.2" marker-end="url(#fleche)"/>
    <path d="M 601.6 3352.0 L 579.2 3442.0" fill="none" stroke="#64748b" stroke-width="1.2" marker-end="url(#fleche)"/>
    <path d="M 394.0 1226.0 V 1291.0 H 838.0 V 1356.0" fill="none" stroke="#64748b" stroke-width="1.2" marker-end="url(#fleche)"/>
    <rect x="601.6" y="1281.0" width="28.8" height="15" rx="3" fill="#ffffff" stroke="none"/>
    <text x="616.0" y="1293.0" text-anchor="middle" font-size="10.5" fill="#1e293b">OUI</text>
    <path d="M 394.0 1226.0 V 1291.0 H 1048.8 V 1356.0" fill="none" stroke="#64748b" stroke-width="1.2" marker-end="url(#fleche)"/>
    <rect x="707.0" y="1281.0" width="28.8" height="15" rx="3" fill="#ffffff" stroke="none"/>
    <text x="721.4" y="1293.0" text-anchor="middle" font-size="10.5" fill="#1e293b">NON</text>
    <path d="M 394.0 1226.0 V 1291.0 H 611.2 V 1356.0" fill="none" stroke="#64748b" stroke-width="1.2" marker-end="url(#fleche)"/>
    <rect x="460.2" y="1281.0" width="84.8" height="15" rx="3" fill="#ffffff" stroke="none"/>
    <text x="502.6" y="1293.0" text-anchor="middle" font-size="10.5" fill="#1e293b">documentation</text>
    <path d="M 394.0 1226.0 V 1291.0 H 1444.8 V 1356.0" fill="none" stroke="#64748b" stroke-width="1.2" marker-end="url(#fleche)"/>
    <rect x="899.4" y="1281.0" width="40.0" height="15" rx="3" fill="#ffffff" stroke="none"/>
    <text x="919.4" y="1293.0" text-anchor="middle" font-size="10.5" fill="#1e293b">audit</text>
    <path d="M 611.2 1404.0 V 1456.0 H 349.4 V 1508.0" fill="none" stroke="#64748b" stroke-width="1.2" marker-end="url(#fleche)"/>
    <path d="M 349.4 1556.0 V 1608.0 H 480.2 V 1660.0" fill="none" stroke="#64748b" stroke-width="1.2" marker-end="url(#fleche)"/>
    <path d="M 480.2 1722.0 L 812.4 1812.0" fill="none" stroke="#64748b" stroke-width="1.2" marker-end="url(#fleche)"/>
    <path d="M 838.0 1392.0 V 1450.0 H 978.6 V 1508.0" fill="none" stroke="#64748b" stroke-width="1.2" marker-end="url(#fleche)"/>
    <path d="M 1048.8 1392.0 V 1450.0 H 761.4 V 1508.0" fill="none" stroke="#64748b" stroke-width="1.2" marker-end="url(#fleche)"/>
    <rect x="871.1" y="1440.0" width="68.0" height="15" rx="3" fill="#ffffff" stroke="none"/>
    <text x="905.1" y="1452.0" text-anchor="middle" font-size="10.5" fill="#1e293b">TEMPORAIRE</text>
    <path d="M 1048.8 1392.0 V 1450.0 H 547.4 V 1508.0" fill="none" stroke="#64748b" stroke-width="1.2" marker-end="url(#fleche)"/>
    <rect x="772.5" y="1440.0" width="51.2" height="15" rx="3" fill="#ffffff" stroke="none"/>
    <text x="798.1" y="1452.0" text-anchor="middle" font-size="10.5" fill="#1e293b">DURABLE</text>
    <path d="M 761.4 1544.0 V 1602.0 H 687.8 V 1660.0" fill="none" stroke="#64748b" stroke-width="1.2" marker-end="url(#fleche)"/>
    <path d="M 978.6 1570.0 L 885.8 1660.0" fill="none" stroke="#64748b" stroke-width="1.2" marker-end="url(#fleche)"/>
    <path d="M 608.0 1252.0 V 1304.0 H 1243.6 V 1356.0" fill="none" stroke="#64748b" stroke-width="1.2" marker-end="url(#fleche)"/>
    <path d="M 818.8 1252.0 V 1304.0 H 173.6 V 1356.0" fill="none" stroke="#64748b" stroke-width="1.2" marker-end="url(#fleche)"/>
    <path d="M 1036.0 1266.0 L 387.6 1356.0" fill="none" stroke="#64748b" stroke-width="1.2" marker-end="url(#fleche)"/>
    <path d="M 1243.6 1392.0 V 1450.0 H 1358.6 V 1508.0" fill="none" stroke="#64748b" stroke-width="1.2" marker-end="url(#fleche)"/>
    <path d="M 1444.8 1404.0 V 1456.0 H 1176.6 V 1508.0" fill="none" stroke="#64748b" stroke-width="1.2" marker-end="url(#fleche)"/>
    <path d="M 1176.6 1570.0 L 1080.6 1660.0" fill="none" stroke="#64748b" stroke-width="1.2" marker-end="url(#fleche)"/>
    <path d="M 921.0 2924.0 L 1016.8 3014.0" fill="none" stroke="#64748b" stroke-width="1.2" marker-end="url(#fleche)"/>
    <path d="M 687.8 2620.0 V 2679.0 H 707.0 V 2738.0" fill="none" stroke="#64748b" stroke-width="1.2" marker-end="url(#fleche)"/>
    <path d="M 1358.6 1556.0 V 1608.0 H 1304.2 V 1660.0" fill="none" stroke="#64748b" stroke-width="1.2" marker-end="url(#fleche)"/>
    <rect x="1317.0" y="1598.0" width="28.8" height="15" rx="3" fill="#ffffff" stroke="none"/>
    <text x="1331.4" y="1610.0" text-anchor="middle" font-size="10.5" fill="#1e293b">OUI</text>
    <path d="M 1358.6 1556.0 V 1608.0 H 1304.2 V 1660.0" fill="none" stroke="#64748b" stroke-width="1.2" marker-end="url(#fleche)"/>
    <rect x="1317.0" y="1598.0" width="28.8" height="15" rx="3" fill="#ffffff" stroke="none"/>
    <text x="1331.4" y="1610.0" text-anchor="middle" font-size="10.5" fill="#1e293b">NON</text>
    <path d="M 1304.2 1696.0 V 1754.0 H 1023.2 V 1812.0" fill="none" stroke="#64748b" stroke-width="1.2" marker-end="url(#fleche)"/>
    <path d="M 1023.2 1848.0 V 1899.0 H 921.0 V 1950.0" fill="none" stroke="#64748b" stroke-width="1.2" marker-end="url(#fleche)"/>
    <rect x="957.7" y="1889.0" width="28.8" height="15" rx="3" fill="#ffffff" stroke="none"/>
    <text x="972.1" y="1901.0" text-anchor="middle" font-size="10.5" fill="#1e293b">OUI</text>
    <path d="M 1023.2 1848.0 V 1899.0 H 921.0 V 1950.0" fill="none" stroke="#64748b" stroke-width="1.2" marker-end="url(#fleche)"/>
    <rect x="957.7" y="1889.0" width="28.8" height="15" rx="3" fill="#ffffff" stroke="none"/>
    <text x="972.1" y="1901.0" text-anchor="middle" font-size="10.5" fill="#1e293b">NON</text>
    <path d="M 921.0 1986.0 V 2044.0 H 1020.0 V 2102.0" fill="none" stroke="#64748b" stroke-width="1.2" marker-end="url(#fleche)"/>
    <path d="M 1020.0 2150.0 V 2202.0 H 1042.4 V 2254.0" fill="none" stroke="#64748b" stroke-width="1.2" marker-end="url(#fleche)"/>
    <path d="M 1042.4 2316.0 V 2368.0 H 825.2 V 2420.0" fill="none" stroke="#64748b" stroke-width="1.2" marker-end="url(#fleche)"/>
    <rect x="919.4" y="2358.0" width="28.8" height="15" rx="3" fill="#ffffff" stroke="none"/>
    <text x="933.8" y="2370.0" text-anchor="middle" font-size="10.5" fill="#1e293b">OUI</text>
    <path d="M 1042.4 2316.0 V 2368.0 H 1036.0 V 2420.0" fill="none" stroke="#64748b" stroke-width="1.2" marker-end="url(#fleche)"/>
    <rect x="1024.8" y="2358.0" width="28.8" height="15" rx="3" fill="#ffffff" stroke="none"/>
    <text x="1039.2" y="2370.0" text-anchor="middle" font-size="10.5" fill="#1e293b">NON</text>
    <path d="M 825.2 2482.0 L 927.4 2572.0" fill="none" stroke="#64748b" stroke-width="1.2" marker-end="url(#fleche)"/>
    <path d="M 927.4 2648.0 C 1017.4 2534.0, 1126.0 2534.0, 1036.0 2420.0" fill="none" stroke="#64748b" stroke-width="1.2" marker-end="url(#fleche)"/>
    <path d="M 1036.0 2468.0 V 2520.0 H 1160.6 V 2572.0" fill="none" stroke="#64748b" stroke-width="1.2" marker-end="url(#fleche)"/>
    <path d="M 1160.6 2608.0 V 2673.0 H 921.0 V 2738.0" fill="none" stroke="#64748b" stroke-width="1.2" marker-end="url(#fleche)"/>
    <path d="M 921.0 2786.0 L 921.0 2876.0" fill="none" stroke="#64748b" stroke-width="1.2" marker-end="url(#fleche)"/>
    <rect x="906.6" y="2821.0" width="28.8" height="15" rx="3" fill="#ffffff" stroke="none"/>
    <text x="921.0" y="2833.0" text-anchor="middle" font-size="10.5" fill="#1e293b">OUI</text>
    <path d="M 921.0 2786.0 C 1016.0 2801.0, 1016.0 2723.0, 921.0 2738.0" fill="none" stroke="#64748b" stroke-width="1.2" marker-end="url(#fleche)"/>
    <rect x="1004.6" y="2752.0" width="28.8" height="15" rx="3" fill="#ffffff" stroke="none"/>
    <text x="1019.0" y="2764.0" text-anchor="middle" font-size="10.5" fill="#1e293b">NON</text>
    <path d="M 1039.2 3200.0 L 809.2 3290.0" fill="none" stroke="#64748b" stroke-width="1.2" marker-end="url(#fleche)"/>
    <rect x="909.8" y="3235.0" width="28.8" height="15" rx="3" fill="#ffffff" stroke="none"/>
    <text x="924.2" y="3247.0" text-anchor="middle" font-size="10.5" fill="#1e293b">OUI</text>
    <path d="M 1039.2 3200.0 L 1016.8 3290.0" fill="none" stroke="#64748b" stroke-width="1.2" marker-end="url(#fleche)"/>
    <rect x="1013.6" y="3235.0" width="28.8" height="15" rx="3" fill="#ffffff" stroke="none"/>
    <text x="1028.0" y="3247.0" text-anchor="middle" font-size="10.5" fill="#1e293b">NON</text>
    <path d="M 809.2 3338.0 V 3390.0 H 806.0 V 3442.0" fill="none" stroke="#64748b" stroke-width="1.2" marker-end="url(#fleche)"/>
    <path d="M 806.0 3490.0 L 710.2 3580.0" fill="none" stroke="#64748b" stroke-width="1.2" marker-end="url(#fleche)"/>
    <path d="M 710.2 3642.0 C 800.2 2575.0, 1605.0 2575.0, 1515.0 1508.0" fill="none" stroke="#64748b" stroke-width="1.2" marker-end="url(#fleche)"/>
    <path d="M 1016.8 3338.0 V 3390.0 H 1036.0 V 3442.0" fill="none" stroke="#64748b" stroke-width="1.2" marker-end="url(#fleche)"/>
    <path d="M 1036.0 3478.0 V 3529.0 H 924.2 V 3580.0" fill="none" stroke="#64748b" stroke-width="1.2" marker-end="url(#fleche)"/>
    <rect x="965.7" y="3519.0" width="28.8" height="15" rx="3" fill="#ffffff" stroke="none"/>
    <text x="980.1" y="3531.0" text-anchor="middle" font-size="10.5" fill="#1e293b">OUI</text>
    <path d="M 1036.0 3478.0 C 1131.0 3493.0, 1131.0 3427.0, 1036.0 3442.0" fill="none" stroke="#64748b" stroke-width="1.2" marker-end="url(#fleche)"/>
    <rect x="1119.6" y="3450.0" width="28.8" height="15" rx="3" fill="#ffffff" stroke="none"/>
    <text x="1134.0" y="3462.0" text-anchor="middle" font-size="10.5" fill="#1e293b">NON</text>
    <path d="M 1016.8 3062.0 L 1039.2 3152.0" fill="none" stroke="#64748b" stroke-width="1.2" marker-end="url(#fleche)"/>
    <path d="M 924.2 3642.0 L 809.2 3732.0" fill="none" stroke="#64748b" stroke-width="1.2" marker-end="url(#fleche)"/>
    <path d="M 809.2 934.0 L 873.0 1024.0" fill="none" stroke="#64748b" stroke-width="1.2" marker-end="url(#fleche)"/>
    <rect x="826.7" y="969.0" width="28.8" height="15" rx="3" fill="#ffffff" stroke="none"/>
    <text x="841.1" y="981.0" text-anchor="middle" font-size="10.5" fill="#1e293b">OUI</text>
    <path d="M 809.2 934.0 L 691.0 1024.0" fill="none" stroke="#64748b" stroke-width="1.2" marker-end="url(#fleche)"/>
    <rect x="735.7" y="969.0" width="28.8" height="15" rx="3" fill="#ffffff" stroke="none"/>
    <text x="750.1" y="981.0" text-anchor="middle" font-size="10.5" fill="#1e293b">NON</text>
    <path d="M 873.0 1100.0 L 1240.4 1190.0" fill="none" stroke="#64748b" stroke-width="1.2" marker-end="url(#fleche)"/>
    <rect x="775.0" y="40.0" width="68.4" height="36.0" rx="18.0" fill="#e0f2fe" stroke="#1d4ed8" stroke-width="1.3"/>
    <text x="809.2" y="62.0" text-anchor="middle" font-size="11.5" fill="#0f172a">
      <tspan x="809.2" dy="0">Debut&quot;</tspan>
    </text>
    <rect x="777.2" y="166.0" width="64.0" height="36.0" rx="6.0" fill="#f8fafc" stroke="#334155" stroke-width="1.3"/>
    <text x="809.2" y="188.0" text-anchor="middle" font-size="11.5" fill="#0f172a">
      <tspan x="809.2" dy="0">c0</tspan>
    </text>
    <path d="M 809.2 292.0 L 901.0 323.0 L 809.2 354.0 L 717.4 323.0 Z" fill="#fef3c7" stroke="#b45309" stroke-width="1.3"/>
    <text x="809.2" y="313.0" text-anchor="middle" font-size="11.5" fill="#0f172a">
      <tspan x="809.2" dy="0">&quot;Confirmation : as-tu lu</tspan>
      <tspan x="809.2" dy="14">ta fiche et tes</tspan>
      <tspan x="809.2" dy="14">corrections ?&quot;</tspan>
    </text>
    <rect x="720.6" y="596.0" width="177.2" height="62.0" rx="6.0" fill="#f8fafc" stroke="#334155" stroke-width="1.3"/>
    <text x="809.2" y="617.0" text-anchor="middle" font-size="11.5" fill="#0f172a">
      <tspan x="809.2" dy="0">&quot;CONTEXTE OBLIGATOIRE :</tspan>
      <tspan x="809.2" dy="14">activite recente des</tspan>
      <tspan x="809.2" dy="14">agents&quot;</tspan>
    </text>
    <rect x="711.0" y="748.0" width="196.4" height="48.0" rx="6.0" fill="#f8fafc" stroke="#334155" stroke-width="1.3"/>
    <text x="809.2" y="769.0" text-anchor="middle" font-size="11.5" fill="#0f172a">
      <tspan x="809.2" dy="0">&quot;LIRE LA DOCUMENTATION DE</tspan>
      <tspan x="809.2" dy="14">L OUTIL avant utilisation&quot;</tspan>
    </text>
    <rect x="714.2" y="444.0" width="190.0" height="62.0" rx="6.0" fill="#f8fafc" stroke="#334155" stroke-width="1.3"/>
    <text x="809.2" y="465.0" text-anchor="middle" font-size="11.5" fill="#0f172a">
      <tspan x="809.2" dy="0">&quot;Consulter les lecons des</tspan>
      <tspan x="809.2" dy="14">autres agents (domaine de</tspan>
      <tspan x="809.2" dy="14">ma mission)&quot;</tspan>
    </text>
    <path d="M 691.0 1024.0 L 734.8 1042.0 L 691.0 1060.0 L 647.2 1042.0 Z" fill="#fef3c7" stroke="#b45309" stroke-width="1.3"/>
    <text x="691.0" y="1046.0" text-anchor="middle" font-size="11.5" fill="#0f172a">
      <tspan x="691.0" dy="0">&quot;Mission&quot;</tspan>
    </text>
    <rect x="94.6" y="1356.0" width="158.0" height="48.0" rx="6.0" fill="#f8fafc" stroke="#334155" stroke-width="1.3"/>
    <text x="173.6" y="1377.0" text-anchor="middle" font-size="11.5" fill="#0f172a">
      <tspan x="173.6" dy="0">&quot;Verifier le systeme</tspan>
      <tspan x="173.6" dy="14">(modification)&quot;</tspan>
    </text>
    <rect x="50.0" y="1508.0" width="177.2" height="36.0" rx="6.0" fill="#f8fafc" stroke="#334155" stroke-width="1.3"/>
    <text x="138.6" y="1530.0" text-anchor="middle" font-size="11.5" fill="#0f172a">
      <tspan x="138.6" dy="0">&quot;Lire l&apos;outil existant&quot;</tspan>
    </text>
    <rect x="216.0" y="1660.0" width="145.2" height="36.0" rx="6.0" fill="#f8fafc" stroke="#334155" stroke-width="1.3"/>
    <text x="288.6" y="1682.0" text-anchor="middle" font-size="11.5" fill="#0f172a">
      <tspan x="288.6" dy="0">&quot;Modifier l&apos;outil&quot;</tspan>
    </text>
    <rect x="503.4" y="1812.0" width="190.0" height="48.0" rx="6.0" fill="#f8fafc" stroke="#334155" stroke-width="1.3"/>
    <text x="598.4" y="1833.0" text-anchor="middle" font-size="11.5" fill="#0f172a">
      <tspan x="598.4" dy="0">&quot;Bumper l outil</tspan>
      <tspan x="598.4" dy="14">(mettre-a-jour-versions)&quot;</tspan>
    </text>
    <path d="M 710.2 1950.0 L 802.0 1981.0 L 710.2 2012.0 L 618.4 1981.0 Z" fill="#fef3c7" stroke="#b45309" stroke-width="1.3"/>
    <text x="710.2" y="1971.0" text-anchor="middle" font-size="11.5" fill="#0f172a">
      <tspan x="710.2" dy="0">&quot;L outil concerne est-il</tspan>
      <tspan x="710.2" dy="14">un COMBO ou le CATALOGUE</tspan>
      <tspan x="710.2" dy="14">?&quot;</tspan>
    </text>
    <rect x="503.4" y="2102.0" width="209.2" height="62.0" rx="6.0" fill="#f8fafc" stroke="#334155" stroke-width="1.3"/>
    <text x="608.0" y="2123.0" text-anchor="middle" font-size="11.5" fill="#0f172a">
      <tspan x="608.0" dy="0">&quot;Lancer le scan</tspan>
      <tspan x="608.0" dy="14">detecter-decalages-catalogue</tspan>
      <tspan x="608.0" dy="14">(section COMBOS)&quot;</tspan>
    </text>
    <rect x="484.2" y="2254.0" width="209.2" height="76.0" rx="6.0" fill="#f8fafc" stroke="#334155" stroke-width="1.3"/>
    <text x="588.8" y="2275.0" text-anchor="middle" font-size="11.5" fill="#0f172a">
      <tspan x="588.8" dy="0">&quot;Lancer le</tspan>
      <tspan x="588.8" dy="14">test-023-grep-budget-pondere</tspan>
      <tspan x="588.8" dy="14">(coherence budget</tspan>
      <tspan x="588.8" dy="14">pondere)&quot;</tspan>
    </text>
    <rect x="752.6" y="2102.0" width="132.4" height="48.0" rx="6.0" fill="#f8fafc" stroke="#334155" stroke-width="1.3"/>
    <text x="818.8" y="2123.0" text-anchor="middle" font-size="11.5" fill="#0f172a">
      <tspan x="818.8" dy="0">&quot;Lancer le combo</tspan>
      <tspan x="818.8" dy="14">corriger-ascii&quot;</tspan>
    </text>
    <rect x="733.4" y="2254.0" width="177.2" height="36.0" rx="6.0" fill="#f8fafc" stroke="#334155" stroke-width="1.3"/>
    <text x="822.0" y="2276.0" text-anchor="middle" font-size="11.5" fill="#0f172a">
      <tspan x="822.0" dy="0">&quot;RVAV avant activation&quot;</tspan>
    </text>
    <path d="M 598.4 2420.0 L 680.6 2444.0 L 598.4 2468.0 L 516.2 2444.0 Z" fill="#fef3c7" stroke="#b45309" stroke-width="1.3"/>
    <text x="598.4" y="2441.0" text-anchor="middle" font-size="11.5" fill="#0f172a">
      <tspan x="598.4" dy="0">&quot;Deleguer les tests a</tspan>
      <tspan x="598.4" dy="14">Morpheus&quot;</tspan>
    </text>
    <rect x="369.2" y="2572.0" width="183.6" height="76.0" rx="6.0" fill="#f8fafc" stroke="#334155" stroke-width="1.3"/>
    <text x="461.0" y="2593.0" text-anchor="middle" font-size="11.5" fill="#0f172a">
      <tspan x="461.0" dy="0">&quot;INTER-ROUND : activer l</tspan>
      <tspan x="461.0" dy="14">agent habilite pour</tspan>
      <tspan x="461.0" dy="14">reparer (tests non</tspan>
      <tspan x="461.0" dy="14">delegues)&quot;</tspan>
    </text>
    <rect x="487.4" y="3442.0" width="183.6" height="36.0" rx="18.0" fill="#e0f2fe" stroke="#1d4ed8" stroke-width="1.3"/>
    <text x="579.2" y="3464.0" text-anchor="middle" font-size="11.5" fill="#0f172a">
      <tspan x="579.2" dy="0">FIN - Modifier un outil&quot;</tspan>
    </text>
    <path d="M 694.2 2876.0 L 786.0 2900.0 L 694.2 2924.0 L 602.4 2900.0 Z" fill="#fef3c7" stroke="#b45309" stroke-width="1.3"/>
    <text x="694.2" y="2897.0" text-anchor="middle" font-size="11.5" fill="#0f172a">
      <tspan x="694.2" dy="0">&quot;Ameliorations possibles</tspan>
      <tspan x="694.2" dy="14">de mon fonctionnement ?&quot;</tspan>
    </text>
    <rect x="509.8" y="3014.0" width="177.2" height="48.0" rx="6.0" fill="#f8fafc" stroke="#334155" stroke-width="1.3"/>
    <text x="598.4" y="3035.0" text-anchor="middle" font-size="11.5" fill="#0f172a">
      <tspan x="598.4" dy="0">&quot;Lancer le generateur d</tspan>
      <tspan x="598.4" dy="14">amelioration&quot;</tspan>
    </text>
    <rect x="487.4" y="3152.0" width="190.0" height="48.0" rx="6.0" fill="#f8fafc" stroke="#334155" stroke-width="1.3"/>
    <text x="582.4" y="3173.0" text-anchor="middle" font-size="11.5" fill="#0f172a">
      <tspan x="582.4" dy="0">&quot;Activer l&apos;agent habilite</tspan>
      <tspan x="582.4" dy="14">pour l&apos;amelioration&quot;</tspan>
    </text>
    <rect x="292.6" y="1356.0" width="190.0" height="62.0" rx="31.0" fill="#e0f2fe" stroke="#1d4ed8" stroke-width="1.3"/>
    <text x="387.6" y="1377.0" text-anchor="middle" font-size="11.5" fill="#0f172a">
      <tspan x="387.6" dy="0">FIN - Reprise du parcours</tspan>
      <tspan x="387.6" dy="14">apres retour de l&apos;agent</tspan>
      <tspan x="387.6" dy="14">habilite&quot;</tspan>
    </text>
    <rect x="727.0" y="3014.0" width="158.0" height="48.0" rx="6.0" fill="#f8fafc" stroke="#334155" stroke-width="1.3"/>
    <text x="806.0" y="3035.0" text-anchor="middle" font-size="11.5" fill="#0f172a">
      <tspan x="806.0" dy="0">&quot;Activer Themis pour</tspan>
      <tspan x="806.0" dy="14">auditer ma mission&quot;</tspan>
    </text>
    <path d="M 812.4 3152.0 L 907.4 3170.0 L 812.4 3188.0 L 717.4 3170.0 Z" fill="#fef3c7" stroke="#b45309" stroke-width="1.3"/>
    <text x="812.4" y="3174.0" text-anchor="middle" font-size="11.5" fill="#0f172a">
      <tspan x="812.4" dy="0">&quot;Retour de Themis recu ?&quot;</tspan>
    </text>
    <rect x="615.2" y="2738.0" width="183.6" height="48.0" rx="6.0" fill="#f8fafc" stroke="#334155" stroke-width="1.3"/>
    <text x="707.0" y="2759.0" text-anchor="middle" font-size="11.5" fill="#0f172a">
      <tspan x="707.0" dy="0">&quot;Ajouter les lecons dans</tspan>
      <tspan x="707.0" dy="14">corrections.md&quot;</tspan>
    </text>
    <rect x="522.6" y="3290.0" width="158.0" height="62.0" rx="6.0" fill="#f8fafc" stroke="#334155" stroke-width="1.3"/>
    <text x="601.6" y="3311.0" text-anchor="middle" font-size="11.5" fill="#0f172a">
      <tspan x="601.6" dy="0">&quot;HISTORISER LA FIN :</tspan>
      <tspan x="601.6" dy="14">tracer la fin de mon</tspan>
      <tspan x="601.6" dy="14">intervention&quot;</tspan>
    </text>
    <path d="M 394.0 1190.0 L 482.6 1208.0 L 394.0 1226.0 L 305.4 1208.0 Z" fill="#fef3c7" stroke="#b45309" stroke-width="1.3"/>
    <text x="394.0" y="1212.0" text-anchor="middle" font-size="11.5" fill="#0f172a">
      <tspan x="394.0" dy="0">&quot;Mission hors parcours&quot;</tspan>
    </text>
    <rect x="522.6" y="1356.0" width="177.2" height="48.0" rx="6.0" fill="#f8fafc" stroke="#334155" stroke-width="1.3"/>
    <text x="611.2" y="1377.0" text-anchor="middle" font-size="11.5" fill="#0f172a">
      <tspan x="611.2" dy="0">&quot;Documentation / Mise a</tspan>
      <tspan x="611.2" dy="14">jour de ma fiche&quot;</tspan>
    </text>
    <rect x="267.2" y="1508.0" width="164.4" height="48.0" rx="6.0" fill="#f8fafc" stroke="#334155" stroke-width="1.3"/>
    <text x="349.4" y="1529.0" text-anchor="middle" font-size="11.5" fill="#0f172a">
      <tspan x="349.4" dy="0">&quot;RVAV avant reactiver</tspan>
      <tspan x="349.4" dy="14">Cerberus&quot;</tspan>
    </text>
    <rect x="733.4" y="1812.0" width="158.0" height="36.0" rx="18.0" fill="#e0f2fe" stroke="#1d4ed8" stroke-width="1.3"/>
    <text x="812.4" y="1834.0" text-anchor="middle" font-size="11.5" fill="#0f172a">
      <tspan x="812.4" dy="0">FIN - Documentation&quot;</tspan>
    </text>
    <rect x="401.2" y="1660.0" width="158.0" height="62.0" rx="6.0" fill="#f8fafc" stroke="#334155" stroke-width="1.3"/>
    <text x="480.2" y="1681.0" text-anchor="middle" font-size="11.5" fill="#0f172a">
      <tspan x="480.2" dy="0">&quot;HISTORISER LA FIN :</tspan>
      <tspan x="480.2" dy="14">tracer la fin de mon</tspan>
      <tspan x="480.2" dy="14">intervention&quot;</tspan>
    </text>
    <rect x="739.8" y="1356.0" width="196.4" height="36.0" rx="6.0" fill="#f8fafc" stroke="#334155" stroke-width="1.3"/>
    <text x="838.0" y="1378.0" text-anchor="middle" font-size="11.5" fill="#0f172a">
      <tspan x="838.0" dy="0">&quot;Activer l&apos;agent habilite&quot;</tspan>
    </text>
    <rect x="471.6" y="1508.0" width="151.6" height="36.0" rx="18.0" fill="#e0f2fe" stroke="#1d4ed8" stroke-width="1.3"/>
    <text x="547.4" y="1530.0" text-anchor="middle" font-size="11.5" fill="#0f172a">
      <tspan x="547.4" dy="0">Signaler le besoin&quot;</tspan>
    </text>
    <path d="M 1048.8 1356.0 L 1121.4 1374.0 L 1048.8 1392.0 L 976.2 1374.0 Z" fill="#fef3c7" stroke="#b45309" stroke-width="1.3"/>
    <text x="1048.8" y="1378.0" text-anchor="middle" font-size="11.5" fill="#0f172a">
      <tspan x="1048.8" dy="0">&quot;Besoin d outil ?&quot;</tspan>
    </text>
    <rect x="663.2" y="1508.0" width="196.4" height="36.0" rx="6.0" fill="#f8fafc" stroke="#334155" stroke-width="1.3"/>
    <text x="761.4" y="1530.0" text-anchor="middle" font-size="11.5" fill="#0f172a">
      <tspan x="761.4" dy="0">&quot;Creer l outil temporaire&quot;</tspan>
    </text>
    <rect x="599.2" y="1660.0" width="177.2" height="36.0" rx="18.0" fill="#e0f2fe" stroke="#1d4ed8" stroke-width="1.3"/>
    <text x="687.8" y="1682.0" text-anchor="middle" font-size="11.5" fill="#0f172a">
      <tspan x="687.8" dy="0">FIN - Outil temporaire&quot;</tspan>
    </text>
    <rect x="816.4" y="1660.0" width="138.8" height="36.0" rx="18.0" fill="#e0f2fe" stroke="#1d4ed8" stroke-width="1.3"/>
    <text x="885.8" y="1682.0" text-anchor="middle" font-size="11.5" fill="#0f172a">
      <tspan x="885.8" dy="0">FIN - Delegation&quot;</tspan>
    </text>
    <rect x="899.6" y="1508.0" width="158.0" height="62.0" rx="6.0" fill="#f8fafc" stroke="#334155" stroke-width="1.3"/>
    <text x="978.6" y="1529.0" text-anchor="middle" font-size="11.5" fill="#0f172a">
      <tspan x="978.6" dy="0">&quot;HISTORISER LA FIN :</tspan>
      <tspan x="978.6" dy="14">tracer la fin de mon</tspan>
      <tspan x="978.6" dy="14">intervention&quot;</tspan>
    </text>
    <rect x="522.6" y="1190.0" width="170.8" height="62.0" rx="6.0" fill="#f8fafc" stroke="#334155" stroke-width="1.3"/>
    <text x="608.0" y="1211.0" text-anchor="middle" font-size="11.5" fill="#0f172a">
      <tspan x="608.0" dy="0">&quot;HISTORISER LE DEBUT :</tspan>
      <tspan x="608.0" dy="14">tracer le debut de mon</tspan>
      <tspan x="608.0" dy="14">intervention&quot;</tspan>
    </text>
    <rect x="733.4" y="1190.0" width="170.8" height="62.0" rx="6.0" fill="#f8fafc" stroke="#334155" stroke-width="1.3"/>
    <text x="818.8" y="1211.0" text-anchor="middle" font-size="11.5" fill="#0f172a">
      <tspan x="818.8" dy="0">&quot;HISTORISER LE DEBUT :</tspan>
      <tspan x="818.8" dy="14">tracer le debut de mon</tspan>
      <tspan x="818.8" dy="14">intervention&quot;</tspan>
    </text>
    <rect x="944.2" y="1190.0" width="183.6" height="76.0" rx="6.0" fill="#f8fafc" stroke="#334155" stroke-width="1.3"/>
    <text x="1036.0" y="1211.0" text-anchor="middle" font-size="11.5" fill="#0f172a">
      <tspan x="1036.0" dy="0">&quot;RECEPTION INTER-ROUND :</tspan>
      <tspan x="1036.0" dy="14">accuser reception du</tspan>
      <tspan x="1036.0" dy="14">rapport KO et activer l</tspan>
      <tspan x="1036.0" dy="14">appelant&quot;</tspan>
    </text>
    <rect x="1161.4" y="1356.0" width="164.4" height="36.0" rx="6.0" fill="#f8fafc" stroke="#334155" stroke-width="1.3"/>
    <text x="1243.6" y="1378.0" text-anchor="middle" font-size="11.5" fill="#0f172a">
      <tspan x="1243.6" dy="0">&quot;Verifier le systeme&quot;</tspan>
    </text>
    <rect x="1365.8" y="1356.0" width="158.0" height="48.0" rx="6.0" fill="#f8fafc" stroke="#334155" stroke-width="1.3"/>
    <text x="1444.8" y="1377.0" text-anchor="middle" font-size="11.5" fill="#0f172a">
      <tspan x="1444.8" dy="0">&quot;Activer Themis pour</tspan>
      <tspan x="1444.8" dy="14">auditer&quot;</tspan>
    </text>
    <rect x="995.2" y="1660.0" width="170.8" height="48.0" rx="24.0" fill="#e0f2fe" stroke="#1d4ed8" stroke-width="1.3"/>
    <text x="1080.6" y="1681.0" text-anchor="middle" font-size="11.5" fill="#0f172a">
      <tspan x="1080.6" dy="0">FIN - Retour de Themis</tspan>
      <tspan x="1080.6" dy="14">avec son rapport&quot;</tspan>
    </text>
    <rect x="1097.6" y="1508.0" width="158.0" height="62.0" rx="6.0" fill="#f8fafc" stroke="#334155" stroke-width="1.3"/>
    <text x="1176.6" y="1529.0" text-anchor="middle" font-size="11.5" fill="#0f172a">
      <tspan x="1176.6" dy="0">&quot;HISTORISER LA FIN :</tspan>
      <tspan x="1176.6" dy="14">tracer la fin de mon</tspan>
      <tspan x="1176.6" dy="14">intervention&quot;</tspan>
    </text>
    <rect x="826.0" y="2876.0" width="190.0" height="48.0" rx="6.0" fill="#f8fafc" stroke="#334155" stroke-width="1.3"/>
    <text x="921.0" y="2897.0" text-anchor="middle" font-size="11.5" fill="#0f172a">
      <tspan x="921.0" dy="0">&quot;Enregistrer mes usages d</tspan>
      <tspan x="921.0" dy="14">outils&quot;</tspan>
    </text>
    <rect x="592.8" y="2572.0" width="190.0" height="48.0" rx="6.0" fill="#f8fafc" stroke="#334155" stroke-width="1.3"/>
    <text x="687.8" y="2593.0" text-anchor="middle" font-size="11.5" fill="#0f172a">
      <tspan x="687.8" dy="0">&quot;Enregistrer mes usages d</tspan>
      <tspan x="687.8" dy="14">outils&quot;</tspan>
    </text>
    <path d="M 1358.6 1508.0 L 1421.6 1532.0 L 1358.6 1556.0 L 1295.6 1532.0 Z" fill="#fef3c7" stroke="#b45309" stroke-width="1.3"/>
    <text x="1358.6" y="1529.0" text-anchor="middle" font-size="11.5" fill="#0f172a">
      <tspan x="1358.6" dy="0">&quot;Lire l&apos;outil a</tspan>
      <tspan x="1358.6" dy="14">construire&quot;</tspan>
    </text>
    <rect x="1206.0" y="1660.0" width="196.4" height="36.0" rx="6.0" fill="#f8fafc" stroke="#334155" stroke-width="1.3"/>
    <text x="1304.2" y="1682.0" text-anchor="middle" font-size="11.5" fill="#0f172a">
      <tspan x="1304.2" dy="0">&quot;Copier le outil-template&quot;</tspan>
    </text>
    <path d="M 1023.2 1812.0 L 1115.0 1830.0 L 1023.2 1848.0 L 931.4 1830.0 Z" fill="#fef3c7" stroke="#b45309" stroke-width="1.3"/>
    <text x="1023.2" y="1834.0" text-anchor="middle" font-size="11.5" fill="#0f172a">
      <tspan x="1023.2" dy="0">&quot;Choisir la technologie&quot;</tspan>
    </text>
    <rect x="842.0" y="1950.0" width="158.0" height="36.0" rx="6.0" fill="#f8fafc" stroke="#334155" stroke-width="1.3"/>
    <text x="921.0" y="1972.0" text-anchor="middle" font-size="11.5" fill="#0f172a">
      <tspan x="921.0" dy="0">&quot;Developper l&apos;outil&quot;</tspan>
    </text>
    <rect x="925.0" y="2102.0" width="190.0" height="48.0" rx="6.0" fill="#f8fafc" stroke="#334155" stroke-width="1.3"/>
    <text x="1020.0" y="2123.0" text-anchor="middle" font-size="11.5" fill="#0f172a">
      <tspan x="1020.0" dy="0">&quot;Bumper l outil</tspan>
      <tspan x="1020.0" dy="14">(mettre-a-jour-versions)&quot;</tspan>
    </text>
    <path d="M 1042.4 2254.0 L 1134.2 2285.0 L 1042.4 2316.0 L 950.6 2285.0 Z" fill="#fef3c7" stroke="#b45309" stroke-width="1.3"/>
    <text x="1042.4" y="2275.0" text-anchor="middle" font-size="11.5" fill="#0f172a">
      <tspan x="1042.4" dy="0">&quot;L outil concerne est-il</tspan>
      <tspan x="1042.4" dy="14">un COMBO ou le CATALOGUE</tspan>
      <tspan x="1042.4" dy="14">?&quot;</tspan>
    </text>
    <rect x="720.6" y="2420.0" width="209.2" height="62.0" rx="6.0" fill="#f8fafc" stroke="#334155" stroke-width="1.3"/>
    <text x="825.2" y="2441.0" text-anchor="middle" font-size="11.5" fill="#0f172a">
      <tspan x="825.2" dy="0">&quot;Lancer le scan</tspan>
      <tspan x="825.2" dy="14">detecter-decalages-catalogue</tspan>
      <tspan x="825.2" dy="14">(section COMBOS)&quot;</tspan>
    </text>
    <rect x="822.8" y="2572.0" width="209.2" height="76.0" rx="6.0" fill="#f8fafc" stroke="#334155" stroke-width="1.3"/>
    <text x="927.4" y="2593.0" text-anchor="middle" font-size="11.5" fill="#0f172a">
      <tspan x="927.4" dy="0">&quot;Lancer le</tspan>
      <tspan x="927.4" dy="14">test-023-grep-budget-pondere</tspan>
      <tspan x="927.4" dy="14">(coherence budget</tspan>
      <tspan x="927.4" dy="14">pondere)&quot;</tspan>
    </text>
    <rect x="969.8" y="2420.0" width="132.4" height="48.0" rx="6.0" fill="#f8fafc" stroke="#334155" stroke-width="1.3"/>
    <text x="1036.0" y="2441.0" text-anchor="middle" font-size="11.5" fill="#0f172a">
      <tspan x="1036.0" dy="0">&quot;Lancer le combo</tspan>
      <tspan x="1036.0" dy="14">corriger-ascii&quot;</tspan>
    </text>
    <rect x="1072.0" y="2572.0" width="177.2" height="36.0" rx="6.0" fill="#f8fafc" stroke="#334155" stroke-width="1.3"/>
    <text x="1160.6" y="2594.0" text-anchor="middle" font-size="11.5" fill="#0f172a">
      <tspan x="1160.6" dy="0">&quot;RVAV avant activation&quot;</tspan>
    </text>
    <path d="M 921.0 2738.0 L 1003.2 2762.0 L 921.0 2786.0 L 838.8 2762.0 Z" fill="#fef3c7" stroke="#b45309" stroke-width="1.3"/>
    <text x="921.0" y="2759.0" text-anchor="middle" font-size="11.5" fill="#0f172a">
      <tspan x="921.0" dy="0">&quot;Deleguer les tests a</tspan>
      <tspan x="921.0" dy="14">Morpheus&quot;</tspan>
    </text>
    <rect x="711.0" y="3732.0" width="196.4" height="36.0" rx="18.0" fill="#e0f2fe" stroke="#1d4ed8" stroke-width="1.3"/>
    <text x="809.2" y="3754.0" text-anchor="middle" font-size="11.5" fill="#0f172a">
      <tspan x="809.2" dy="0">FIN - Construire un outil&quot;</tspan>
    </text>
    <path d="M 1039.2 3152.0 L 1131.0 3176.0 L 1039.2 3200.0 L 947.4 3176.0 Z" fill="#fef3c7" stroke="#b45309" stroke-width="1.3"/>
    <text x="1039.2" y="3173.0" text-anchor="middle" font-size="11.5" fill="#0f172a">
      <tspan x="1039.2" dy="0">&quot;Ameliorations possibles</tspan>
      <tspan x="1039.2" dy="14">de mon fonctionnement ?&quot;</tspan>
    </text>
    <rect x="720.6" y="3290.0" width="177.2" height="48.0" rx="6.0" fill="#f8fafc" stroke="#334155" stroke-width="1.3"/>
    <text x="809.2" y="3311.0" text-anchor="middle" font-size="11.5" fill="#0f172a">
      <tspan x="809.2" dy="0">&quot;Lancer le generateur d</tspan>
      <tspan x="809.2" dy="14">amelioration&quot;</tspan>
    </text>
    <rect x="711.0" y="3442.0" width="190.0" height="48.0" rx="6.0" fill="#f8fafc" stroke="#334155" stroke-width="1.3"/>
    <text x="806.0" y="3463.0" text-anchor="middle" font-size="11.5" fill="#0f172a">
      <tspan x="806.0" dy="0">&quot;Activer l&apos;agent habilite</tspan>
      <tspan x="806.0" dy="14">pour l&apos;amelioration&quot;</tspan>
    </text>
    <rect x="615.2" y="3580.0" width="190.0" height="62.0" rx="31.0" fill="#e0f2fe" stroke="#1d4ed8" stroke-width="1.3"/>
    <text x="710.2" y="3601.0" text-anchor="middle" font-size="11.5" fill="#0f172a">
      <tspan x="710.2" dy="0">FIN - Reprise du parcours</tspan>
      <tspan x="710.2" dy="14">apres retour de l&apos;agent</tspan>
      <tspan x="710.2" dy="14">habilite&quot;</tspan>
    </text>
    <rect x="937.8" y="3290.0" width="158.0" height="48.0" rx="6.0" fill="#f8fafc" stroke="#334155" stroke-width="1.3"/>
    <text x="1016.8" y="3311.0" text-anchor="middle" font-size="11.5" fill="#0f172a">
      <tspan x="1016.8" dy="0">&quot;Activer Themis pour</tspan>
      <tspan x="1016.8" dy="14">auditer ma mission&quot;</tspan>
    </text>
    <path d="M 1036.0 3442.0 L 1131.0 3460.0 L 1036.0 3478.0 L 941.0 3460.0 Z" fill="#fef3c7" stroke="#b45309" stroke-width="1.3"/>
    <text x="1036.0" y="3464.0" text-anchor="middle" font-size="11.5" fill="#0f172a">
      <tspan x="1036.0" dy="0">&quot;Retour de Themis recu ?&quot;</tspan>
    </text>
    <rect x="925.0" y="3014.0" width="183.6" height="48.0" rx="6.0" fill="#f8fafc" stroke="#334155" stroke-width="1.3"/>
    <text x="1016.8" y="3035.0" text-anchor="middle" font-size="11.5" fill="#0f172a">
      <tspan x="1016.8" dy="0">&quot;Ajouter les lecons dans</tspan>
      <tspan x="1016.8" dy="14">corrections.md&quot;</tspan>
    </text>
    <rect x="845.2" y="3580.0" width="158.0" height="62.0" rx="6.0" fill="#f8fafc" stroke="#334155" stroke-width="1.3"/>
    <text x="924.2" y="3601.0" text-anchor="middle" font-size="11.5" fill="#0f172a">
      <tspan x="924.2" dy="0">&quot;HISTORISER LA FIN :</tspan>
      <tspan x="924.2" dy="14">tracer la fin de mon</tspan>
      <tspan x="924.2" dy="14">intervention&quot;</tspan>
    </text>
    <path d="M 809.2 886.0 L 907.4 910.0 L 809.2 934.0 L 711.0 910.0 Z" fill="#fef3c7" stroke="#b45309" stroke-width="1.3"/>
    <text x="809.2" y="907.0" text-anchor="middle" font-size="11.5" fill="#0f172a">
      <tspan x="809.2" dy="0">&quot;Probleme avec un outil en</tspan>
      <tspan x="809.2" dy="14">cours de mission ?&quot;</tspan>
    </text>
    <rect x="774.8" y="1024.0" width="196.4" height="76.0" rx="6.0" fill="#f8fafc" stroke="#334155" stroke-width="1.3"/>
    <text x="873.0" y="1045.0" text-anchor="middle" font-size="11.5" fill="#0f172a">
      <tspan x="873.0" dy="0">&quot;COMPRENDRE L OUTIL : lire</tspan>
      <tspan x="873.0" dy="14">le .md puis</tspan>
      <tspan x="873.0" dy="14">generateurs-commande ou</tspan>
      <tspan x="873.0" dy="14">combo&quot;</tspan>
    </text>
    <rect x="1167.8" y="1190.0" width="145.2" height="48.0" rx="24.0" fill="#e0f2fe" stroke="#1d4ed8" stroke-width="1.3"/>
    <text x="1240.4" y="1211.0" text-anchor="middle" font-size="11.5" fill="#0f172a">
      <tspan x="1240.4" dy="0">FIN - Reprendre ma</tspan>
      <tspan x="1240.4" dy="14">mission&quot;</tspan>
    </text>
    <rect x="1461.6" y="1508.0" width="106.8" height="36.0" rx="18.0" fill="#fce7f3" stroke="#be185d" stroke-width="1.3"/>
    <text x="1515.0" y="1530.0" text-anchor="middle" font-size="11.5" fill="#0f172a">
      <tspan x="1515.0" dy="0">FIN-APPELANT</tspan>
    </text>
</svg>
